<svg width="34" height="34" viewBox="0 0 34 34" fill="none" xmlns="http://www.w3.org/2000/svg">
<rect width="34" height="34" rx="17" fill="#D7DBDD"/>
<g clip-path="url(#clip0_1751_211)">
<path d="M16.9997 10.7595C18.5347 10.7595 20.0069 11.3632 21.0923 12.4376C22.1777 13.5121 22.7875 14.9694 22.7875 16.489V18.6948H11.2119V16.4985C11.2119 14.979 11.8217 13.5217 12.9071 12.4472C13.9925 11.3727 15.4647 10.7691 16.9997 10.7691V10.7595Z" stroke="#686E7C" stroke-width="1.5" stroke-linecap="round" stroke-linejoin="round"/>
<path d="M17 10.7596V8.71606" stroke="#686E7C" stroke-width="1.5" stroke-linecap="round" stroke-linejoin="round"/>
<path d="M11.685 18.7043H22.296C23.0814 18.7043 23.8346 19.0132 24.39 19.563C24.9454 20.1128 25.2574 20.8584 25.2574 21.6359V21.6359C25.2574 21.9854 25.1171 22.3206 24.8675 22.5677C24.6179 22.8148 24.2793 22.9537 23.9262 22.9537H10.0548C9.70177 22.9537 9.36318 22.8148 9.11353 22.5677C8.86388 22.3206 8.72363 21.9854 8.72363 21.6359V21.6359C8.72363 20.8584 9.03564 20.1128 9.59101 19.563C10.1464 19.0132 10.8996 18.7043 11.685 18.7043V18.7043Z" stroke="#686E7C" stroke-width="1.5" stroke-linecap="round" stroke-linejoin="round"/>
<path d="M19.4892 22.8201C19.4892 23.4735 19.227 24.1001 18.7603 24.5621C18.2935 25.0242 17.6605 25.2837 17.0005 25.2837C16.3404 25.2837 15.7074 25.0242 15.2407 24.5621C14.7739 24.1001 14.5117 23.4735 14.5117 22.8201" stroke="#686E7C" stroke-width="1.5" stroke-linejoin="round"/>
</g>
<rect x="24.5" y="0.5" width="9" height="9" rx="4.5" fill="#E64155" stroke="white"/>
<defs>
<clipPath id="clip0_1751_211">
<rect width="18" height="18" fill="white" transform="translate(8 8)"/>
</clipPath>
</defs>
</svg>
