<svg width="13" class="geo" height="17" viewBox="0 0 13 17" fill="none" xmlns="http://www.w3.org/2000/svg">
                  <path d="M6.48557 9.03379C7.81381 9.03379 8.89057 7.93612 8.89057 6.58208C8.89057 5.22804 7.81381 4.13037 6.48557 4.13037C5.15732 4.13037 4.08057 5.22804 4.08057 6.58208C4.08057 7.93612 5.15732 9.03379 6.48557 9.03379Z" fill="#C8CAD0"></path>
                  <path d="M0 6.62625C-1.27195e-08 5.75607 0.168127 4.89442 0.494783 4.09049C0.821439 3.28656 1.30023 2.55609 1.90381 1.94078C2.50739 1.32548 3.22394 0.837393 4.01256 0.504393C4.80117 0.171393 5.64641 0 6.5 0C7.35359 0 8.19883 0.171393 8.98744 0.504393C9.77606 0.837393 10.4926 1.32548 11.0962 1.94078C11.6998 2.55609 12.1786 3.28656 12.5052 4.09049C12.8319 4.89442 13 5.75607 13 6.62625C13 10.2707 9.20111 17 6.5 17C3.79889 17 0 10.2707 0 6.62625Z" fill="#C8CAD0"></path>
                  <ellipse cx="6.48195" cy="6.24607" rx="2.3412" ry="2.26121" fill="white"></ellipse>
                </svg>