<svg width="15" class="images" height="13" viewBox="0 0 15 13" fill="none" xmlns="http://www.w3.org/2000/svg">
                  <path d="M13.1851 0H1.8149C0.81256 0 0 0.804085 0 1.79597V11.204C0 12.1959 0.81256 13 1.8149 13H13.1851C14.1874 13 15 12.1959 15 11.204V1.79597C15 0.804085 14.1874 0 13.1851 0Z" fill="#C8CAD0"></path>
                  <path class="white" d="M11.274 4.47793C11.9478 4.47793 12.494 3.93744 12.494 3.2707C12.494 2.60397 11.9478 2.06348 11.274 2.06348C10.6003 2.06348 10.0541 2.60397 10.0541 3.2707C10.0541 3.93744 10.6003 4.47793 11.274 4.47793Z" fill="white"></path>
                  <path class="white" d="M11.2439 10.74L3.53361 10.7994C3.35896 10.7998 3.18743 10.7537 3.03699 10.6659C2.88656 10.5781 2.76276 10.4519 2.67857 10.3005C2.59438 10.149 2.5529 9.978 2.55848 9.80526C2.56406 9.63252 2.6165 9.46445 2.71029 9.31866L4.30885 6.87447C4.41781 6.70755 4.5673 6.5703 4.74366 6.47526C4.92003 6.38022 5.11765 6.33043 5.31846 6.33043C5.51928 6.33043 5.7169 6.38022 5.89326 6.47526C6.06963 6.5703 6.21912 6.70755 6.32808 6.87447C6.40184 6.98613 6.50255 7.07785 6.62111 7.14132C6.73968 7.2048 6.87236 7.23804 7.00716 7.23804C7.14197 7.23804 7.27465 7.2048 7.39322 7.14132C7.51178 7.07785 7.61249 6.98613 7.68625 6.87447L8.73793 5.20933C8.81975 5.0808 8.93509 4.97648 9.0718 4.90737C9.20851 4.83827 9.36152 4.80694 9.51472 4.81668C9.66791 4.82642 9.81562 4.87688 9.94226 4.96272C10.0689 5.04857 10.1698 5.16664 10.2343 5.30448L12.1213 9.46734C12.1713 9.60881 12.187 9.75992 12.1672 9.9085C12.1474 10.0571 12.0926 10.199 12.0072 10.3228C11.9219 10.4466 11.8083 10.5488 11.6758 10.6213C11.5432 10.6938 11.3953 10.7344 11.2439 10.74V10.74Z" fill="white"></path>
                </svg>