<svg width="15" class="videos" height="10" viewBox="0 0 15 10" fill="none" xmlns="http://www.w3.org/2000/svg">
                  <path d="M9.67543 0H1.78102C0.797389 0 0 0.789443 0 1.76327V8.23673C0 9.21056 0.797389 10 1.78102 10H9.67543C10.6591 10 11.4564 9.21056 11.4564 8.23673V1.76327C11.4564 0.789443 10.6591 0 9.67543 0Z" fill="#C8CAD0"></path>
                  <path d="M11.4564 7.92576L12.917 8.98739C13.1127 9.12782 13.3438 9.21203 13.5847 9.23073C13.8257 9.24943 14.0672 9.2019 14.2826 9.09337C14.4981 8.98484 14.679 8.81952 14.8056 8.61565C14.9322 8.41178 14.9994 8.17727 15 7.93797V2.05633C15.0005 1.81663 14.9338 1.58149 14.8073 1.37714C14.6807 1.17279 14.4993 1.00728 14.2833 0.899066C14.0672 0.790857 13.8251 0.744211 13.5838 0.764331C13.3426 0.784452 13.1117 0.870548 12.917 1.01301L11.4564 2.07464" fill="#C8CAD0"></path>
                </svg>