<svg width="18" height="18" viewBox="0 0 18 18" fill="none" xmlns="http://www.w3.org/2000/svg">
<g clipPath="url(#clip0)">
<path fill-rule="evenodd" clip-rule="evenodd" d="M6.78389 13.7318L12.0065 8.50913C13.0692 7.44645 13.0692 5.7245 12.0072 4.66117C11.4974 4.15007 10.8042 3.86285 10.0822 3.86285C9.3603 3.86285 8.66773 4.14941 8.15727 4.65986C6.2519 6.56524 2.93463 9.88251 2.93463 9.88251C2.07756 10.7396 1.59648 11.9008 1.59648 13.1123C1.59648 14.3238 2.07756 15.4864 2.93397 16.3428C3.79103 17.1998 4.95292 17.6803 6.16443 17.6803C7.37593 17.6803 8.53783 17.1998 9.39489 16.3428L14.6182 11.1195C17.1221 8.61552 17.1221 4.55542 14.6175 2.05082L14.6162 2.04951C13.4139 0.847145 11.782 0.1709 10.0809 0.1709C8.37986 0.1709 6.74865 0.846493 5.54563 2.04951C3.86545 3.72969 2.28188 5.31326 2.28188 5.31326C1.93983 5.6553 1.93983 6.21014 2.28122 6.55153C2.62326 6.89357 3.1781 6.89357 3.52014 6.55153L6.78389 3.28778C7.65858 2.41309 8.84462 1.92158 10.0809 1.92158C11.3179 1.92223 12.5039 2.41375 13.378 3.28778C13.3786 3.28843 13.3793 3.28908 13.3793 3.28908C15.1998 5.1096 15.2005 8.06069 13.3799 9.88121C11.3577 11.9034 9.11617 14.145 8.15663 15.1045C7.6279 15.6332 6.91183 15.9302 6.16443 15.9296C5.41768 15.9296 4.70096 15.6332 4.17224 15.1045C3.64416 14.5764 3.34781 13.8597 3.34781 13.113C3.34716 12.3656 3.64416 11.6495 4.17289 11.1208L9.39554 5.89813C9.57766 5.71601 9.8244 5.61418 10.0822 5.61353C10.3394 5.61353 10.5868 5.71602 10.7683 5.89879C11.1475 6.27803 11.1469 6.89227 10.7683 7.27086C8.86355 9.17559 5.54563 12.4935 5.54563 12.4935C5.20358 12.8356 5.20358 13.3904 5.54497 13.7318C5.88701 14.0738 6.44185 14.0738 6.78389 13.7318V13.7318Z" fill="white"/>
</g>
<defs>
<clipPath id="clip0">
<rect width="18" height="18" fill="white"/>
</clipPath>
</defs>
</svg>
