<svg id="Avatar" xmlns="http://www.w3.org/2000/svg" width="66" height="66" viewBox="0 0 66 66">
  <metadata><?xpacket begin="﻿" id="W5M0MpCehiHzreSzNTczkc9d"?>
<x:xmpmeta xmlns:x="adobe:ns:meta/" x:xmptk="Adobe XMP Core 5.6-c140 79.160451, 2017/05/06-01:08:21        ">
   <rdf:RDF xmlns:rdf="http://www.w3.org/1999/02/22-rdf-syntax-ns#">
      <rdf:Description rdf:about=""/>
   </rdf:RDF>
</x:xmpmeta>
                                                                                                    
                                                                                                    
                                                                                                    
                                                                                                    
                                                                                                    
                                                                                                    
                                                                                                    
                                                                                                    
                                                                                                    
                                                                                                    
                                                                                                    
                                                                                                    
                                                                                                    
                                                                                                    
                                                                                                    
                                                                                                    
                                                                                                    
                                                                                                    
                                                                                                    
                                                                                                    
                           
<?xpacket end="w"?></metadata>
<defs>
    <style>
      .cls-1 {
        fill: #ff9c00;
      }

      .cls-2 {
        fill: #fff;
        fill-rule: evenodd;
      }
    </style>
  </defs>
  <circle id="Background" class="cls-1" cx="33" cy="33" r="33"/>
  <path id="Btc" class="cls-2" d="M1655.34,3524.78v-0.09c3.44-1.17,4.69-3.53,4.69-6.05a6.151,6.151,0,0,0-3.32-5.56,9.98,9.98,0,0,0-3.67-1.29v-2.63a1.15,1.15,0,0,0-1.14-1.16h-1.15a1.159,1.159,0,0,0-1.15,1.16v2.34c-0.36-.01-0.73-0.02-1.12-0.02h-2.32v-2.32a1.15,1.15,0,0,0-1.14-1.16h-1.15a1.159,1.159,0,0,0-1.15,1.16v2.32h-4.58a1.152,1.152,0,0,0-1.15,1.16v1.17a1.152,1.152,0,0,0,1.15,1.16h2.29v22.06h-2.29a1.152,1.152,0,0,0-1.15,1.16v1.17a1.152,1.152,0,0,0,1.15,1.16h4.58v2.32a1.159,1.159,0,0,0,1.15,1.16h1.15a1.15,1.15,0,0,0,1.14-1.16v-2.32h0.99c0.88,0,1.68-.04,2.45-0.09v2.41a1.159,1.159,0,0,0,1.15,1.16h1.15a1.15,1.15,0,0,0,1.14-1.16v-2.87a12.028,12.028,0,0,0,5.12-2.19,7.511,7.511,0,0,0,2.83-6.02C1660.99,3528.1,1658.78,3525.66,1655.34,3524.78Zm-9.18-8.46c1.15-.08,1.53-0.17,2.91-0.17,2.86,0,4.58,1.22,4.58,3.37,0,2.1-1.68,3.58-5,3.58h-2.49v-6.78Zm2.66,19.27c-1.08,0-1.51,0-2.66-.08v-7.77h2.57c3.16,0,5.59,1.02,5.59,3.88C1654.32,3534.61,1651.68,3535.59,1648.82,3535.59Z" transform="translate(-1616 -3492)"/>
</svg>
