<svg width="23" height="23" viewBox="0 0 23 23" fill="none" xmlns="http://www.w3.org/2000/svg">
            <path d="M20.7022 7.90097C20.0007 7.25934 19.0861 6.91561 18.1451 6.93995H12.9274C13.2867 6.38165 13.5181 5.74764 13.6043 5.08519C13.687 3.35657 13.1674 1.65396 12.1377 0.280112C12.0816 0.20478 12.0113 0.141674 11.9309 0.0944982C11.8506 0.047322 11.7618 0.0170261 11.6699 0.00538872C11.5779 -0.00624871 11.4846 0.00100678 11.3955 0.0267293C11.3063 0.0524519 11.223 0.0961233 11.1506 0.15518C11.0769 0.212587 11.0152 0.284463 10.969 0.36659C10.9229 0.448717 10.8932 0.53944 10.8819 0.633434C10.8705 0.727429 10.8776 0.822801 10.9027 0.913954C10.9279 1.00511 10.9706 1.0902 11.0284 1.16425C11.8362 2.22976 12.264 3.54518 12.2411 4.89299C12.1207 5.70356 11.6915 6.43252 11.0472 6.92073H5.79195C4.84882 6.90066 3.93275 7.24368 3.22544 7.88175C0.602523 10.3804 0.546116 15.1374 1.59904 18.4529C2.41694 21.0477 3.81771 22.7198 5.3595 22.9217H5.54753C7.67218 22.6622 9.04475 20.9804 9.4208 18.2607C9.45508 18.0429 9.56163 17.8438 9.72254 17.6968C9.88346 17.5498 10.0889 17.4639 10.3045 17.4535H13.6137C13.8293 17.4639 14.0348 17.5498 14.1957 17.6968C14.3566 17.8438 14.4631 18.0429 14.4974 18.2607C14.8641 20.99 16.246 22.6718 18.3707 22.9985H18.5681C20.1005 22.7967 21.5013 21.0765 22.3286 18.5298C23.3721 15.1566 23.3063 10.3996 20.7022 7.90097ZM20.9936 18.0781C20.3825 20.0002 19.4142 21.3456 18.4929 21.5474C16.7067 21.211 16.105 19.4716 15.9076 18.0589C15.8331 17.494 15.5623 16.9753 15.1445 16.5977C14.7268 16.2201 14.1901 16.0088 13.6325 16.0023H10.3045C9.74669 16.0061 9.20887 16.2151 8.78938 16.591C8.3699 16.9668 8.0968 17.4845 8.02003 18.0493C7.832 19.4716 7.22093 21.211 5.43471 21.5474C4.4946 21.3456 3.55448 20.0002 2.94341 18.0781C2.00329 15.1374 2.00329 11.0243 4.19376 8.94848C4.63499 8.55384 5.20593 8.34442 5.79195 8.36226H18.1263C18.712 8.34631 19.2823 8.55549 19.7244 8.94848C21.8961 11.0243 21.8961 15.1374 20.9748 18.0781H20.9936Z" fill="#686E7C"></path>
            <path d="M17.0358 10.7744C16.623 10.7744 16.2195 10.8995 15.8763 11.1339C15.5331 11.3684 15.2656 11.7016 15.1076 12.0914C14.9496 12.4812 14.9083 12.9102 14.9888 13.324C15.0694 13.7379 15.2681 14.118 15.56 14.4164C15.8519 14.7148 16.2238 14.918 16.6286 15.0003C17.0335 15.0826 17.4531 15.0404 17.8345 14.8789C18.2158 14.7174 18.5418 14.444 18.7711 14.0931C19.0004 13.7423 19.1228 13.3298 19.1228 12.9078C19.1241 12.6273 19.071 12.3493 18.9665 12.0899C18.8621 11.8305 18.7084 11.5948 18.5143 11.3964C18.3203 11.198 18.0897 11.0409 17.8359 10.9342C17.5822 10.8274 17.3102 10.7731 17.0358 10.7744ZM17.0358 13.5998C16.9019 13.5998 16.771 13.5592 16.6597 13.4832C16.5484 13.4071 16.4617 13.2991 16.4104 13.1726C16.3592 13.0462 16.3458 12.9071 16.3719 12.7728C16.398 12.6386 16.4625 12.5153 16.5572 12.4186C16.6518 12.3218 16.7724 12.2559 16.9037 12.2292C17.035 12.2025 17.1711 12.2162 17.2948 12.2686C17.4185 12.3209 17.5242 12.4096 17.5986 12.5234C17.673 12.6372 17.7127 12.771 17.7127 12.9078C17.7127 12.9987 17.6952 13.0887 17.6611 13.1726C17.6271 13.2566 17.5773 13.3328 17.5144 13.3971C17.4516 13.4614 17.3769 13.5123 17.2948 13.5471C17.2127 13.5819 17.1247 13.5998 17.0358 13.5998V13.5998Z" fill="#686E7C"></path>
            <path d="M7.47499 10.8129H6.06482V12.1679H4.73926V13.6094H6.06482V14.9548H7.47499V13.6094H8.80055V12.1679H7.47499V10.8129Z" fill="#686E7C"></path>
          </svg>