<svg width="22" height="22" viewBox="0 0 22 22" fill="none" xmlns="http://www.w3.org/2000/svg">
    <path d="M20.6019 16.7189H18.0974V14.1901C18.0974 14.0123 18.0275 13.8419 17.903 13.7162C17.7786 13.5905 17.6098 13.5199 17.4337 13.5199C17.2577 13.5199 17.0889 13.5905 16.9644 13.7162C16.8399 13.8419 16.77 14.0123 16.77 14.1901V16.7189H14.2567C14.0807 16.7189 13.9119 16.7895 13.7874 16.9152C13.6629 17.0409 13.593 17.2114 13.593 17.3891C13.593 17.5669 13.6629 17.7373 13.7874 17.863C13.9119 17.9887 14.0807 18.0593 14.2567 18.0593H16.8143V20.5524C16.8143 20.7301 16.8842 20.9006 17.0087 21.0263C17.1331 21.152 17.3019 21.2226 17.478 21.2226C17.654 21.2226 17.8228 21.152 17.9473 21.0263C18.0718 20.9006 18.1417 20.7301 18.1417 20.5524V18.0593H20.6461C20.8221 18.0593 20.991 17.9887 21.1154 17.863C21.2399 17.7373 21.3098 17.5669 21.3098 17.3891C21.3098 17.2114 21.2399 17.0409 21.1154 16.9152C20.991 16.7895 20.8221 16.7189 20.6461 16.7189H20.6019Z" fill="#686E7C"/>
    <path d="M19.1241 0H15.7347C14.9727 0.00235684 14.2425 0.309085 13.7036 0.853207C13.1647 1.39733 12.861 2.13464 12.8586 2.90414V6.31763C12.861 7.08713 13.1647 7.82444 13.7036 8.36856C14.2425 8.91269 14.9727 9.21941 15.7347 9.22177H19.1241C19.8862 9.21941 20.6164 8.91269 21.1553 8.36856C21.6941 7.82444 21.9979 7.08713 22.0002 6.31763V2.90414C21.9979 2.13464 21.6941 1.39733 21.1553 0.853207C20.6164 0.309085 19.8862 0.00235684 19.1241 0V0ZM20.6728 6.31763C20.6728 6.73237 20.5096 7.13012 20.2192 7.42338C19.9288 7.71664 19.5349 7.8814 19.1241 7.8814H15.7347C15.5292 7.88496 15.3249 7.84714 15.1339 7.77015C14.943 7.69315 14.7691 7.57853 14.6225 7.43297C14.4758 7.2874 14.3594 7.11381 14.2799 6.92231C14.2004 6.73082 14.1595 6.52526 14.1595 6.31763V2.90414C14.1607 2.69685 14.2024 2.49184 14.2823 2.30089C14.3622 2.10994 14.4787 1.93682 14.6251 1.7915C14.7715 1.64617 14.9449 1.5315 15.1353 1.45408C15.3258 1.37666 15.5295 1.33801 15.7347 1.34037H19.1241C19.5341 1.34272 19.9267 1.50823 20.2166 1.80098C20.5066 2.09374 20.6705 2.49013 20.6728 2.90414V6.31763Z" fill="#686E7C"/>
    <path d="M6.25664 0H2.87611C2.11403 0.00235684 1.38384 0.309085 0.84497 0.853207C0.306101 1.39733 0.00233408 2.13464 0 2.90414L0 6.31763C0.00233408 7.08713 0.306101 7.82444 0.84497 8.36856C1.38384 8.91269 2.11403 9.21941 2.87611 9.22177H6.25664C7.01871 9.21941 7.7489 8.91269 8.28777 8.36856C8.82664 7.82444 9.13041 7.08713 9.13274 6.31763V2.90414C9.13041 2.13464 8.82664 1.39733 8.28777 0.853207C7.7489 0.309085 7.01871 0.00235684 6.25664 0V0ZM7.80531 6.31763C7.80531 6.73237 7.64215 7.13012 7.35171 7.42338C7.06128 7.71664 6.66737 7.8814 6.25664 7.8814H2.87611C2.46537 7.8814 2.07146 7.71664 1.78103 7.42338C1.4906 7.13012 1.32743 6.73237 1.32743 6.31763V2.90414C1.32743 2.48941 1.4906 2.09165 1.78103 1.79839C2.07146 1.50513 2.46537 1.34037 2.87611 1.34037H6.25664C6.66737 1.34037 7.06128 1.50513 7.35171 1.79839C7.64215 2.09165 7.80531 2.48941 7.80531 2.90414V6.31763Z" fill="#686E7C"/>
    <path d="M6.25664 12.7782H2.87611C2.11403 12.7806 1.38384 13.0873 0.84497 13.6314C0.306101 14.1756 0.00233408 14.9129 0 15.6824L0 19.0959C0.00233408 19.8654 0.306101 20.6027 0.84497 21.1468C1.38384 21.6909 2.11403 21.9976 2.87611 22H6.25664C7.01871 21.9976 7.7489 21.6909 8.28777 21.1468C8.82664 20.6027 9.13041 19.8654 9.13274 19.0959V15.6824C9.13041 14.9129 8.82664 14.1756 8.28777 13.6314C7.7489 13.0873 7.01871 12.7806 6.25664 12.7782V12.7782ZM7.80531 19.0959C7.80531 19.5106 7.64215 19.9083 7.35171 20.2016C7.06128 20.4949 6.66737 20.6596 6.25664 20.6596H2.87611C2.46537 20.6596 2.07146 20.4949 1.78103 20.2016C1.4906 19.9083 1.32743 19.5106 1.32743 19.0959V15.6824C1.32743 15.2676 1.4906 14.8699 1.78103 14.5766C2.07146 14.2834 2.46537 14.1186 2.87611 14.1186H6.25664C6.66737 14.1186 7.06128 14.2834 7.35171 14.5766C7.64215 14.8699 7.80531 15.2676 7.80531 15.6824V19.0959Z" fill="#686E7C"/>
  </svg>