<svg width="16" height="16" viewBox="0 0 16 16" fill="none" xmlns="http://www.w3.org/2000/svg">
<g clipPath="url(#clip0)">
<path d="M13.232 0.880127H2.832C1.296 0.880127 0 2.17613 0 3.72813V12.2721C0 13.8241 1.296 15.1201 2.848 15.1201H13.168C14.704 15.1201 16.016 13.8241 16.016 12.2721V3.72813C16.08 2.17613 14.784 0.880127 13.232 0.880127ZM14.368 12.3521C14.368 13.0081 13.888 13.5681 13.232 13.5681H2.832C2.176 13.5681 1.616 12.9921 1.616 12.3521V3.72813C1.616 3.07213 2.192 2.51213 2.832 2.51213H13.152C13.808 2.51213 14.368 3.08813 14.368 3.72813V12.3521Z" fill="white"/>
<path d="M11.7761 3.64819C11.4561 3.64819 11.1201 3.80819 10.8801 4.04819C10.6401 4.28819 10.5601 4.54419 10.5601 4.86419C10.5601 5.52019 11.1361 6.08019 11.7761 6.08019C12.4161 6.08019 12.9921 5.50419 12.9921 4.86419C12.9921 4.22419 12.4161 3.64819 11.7761 3.64819Z" fill="white"/>
<path d="M10.7999 6.97604C10.5599 6.40004 9.74393 6.32004 9.34393 6.81604L8.28793 8.36804C7.96793 8.86404 7.23193 8.86404 6.91193 8.36804L6.59193 7.96804C6.27193 7.47204 5.53593 7.56804 5.21593 8.04804L3.40793 10.896C3.08793 11.472 3.40793 12.192 4.14393 12.192H11.7759C12.3519 12.192 12.7519 11.536 12.5119 10.976L10.7999 6.97604Z" fill="white"/>
</g>
<defs>
<clipPath id="clip0">
<rect width="16" height="16" fill="white"/>
</clipPath>
</defs>
</svg>
