<svg width="16" height="16" viewBox="0 0 16 16" fill="none" xmlns="http://www.w3.org/2000/svg">
<g clipPath="url(#clip0)">
<path d="M15.4286 2.28572H12.3533L11.6842 0.947552C11.5426 0.662181 11.324 0.422163 11.053 0.254693C10.782 0.0872231 10.4695 -0.00100394 10.151 8.61865e-06H5.84903C5.53048 -0.00100394 5.21801 0.0872231 4.94703 0.254693C4.67605 0.422163 4.45739 0.662181 4.31583 0.947552L3.64674 2.28572H0.571429C0.419876 2.28572 0.274531 2.34593 0.167368 2.45309C0.0602039 2.56025 0 2.7056 0 2.85715C0 3.0087 0.0602039 3.15405 0.167368 3.26121C0.274531 3.36838 0.419876 3.42858 0.571429 3.42858H1.71429V14.2238C1.71483 14.6947 1.90214 15.1462 2.23513 15.4792C2.56812 15.8122 3.0196 15.9995 3.49051 16H12.5095C12.9804 15.9995 13.4319 15.8122 13.7649 15.4792C14.0979 15.1462 14.2852 14.6947 14.2857 14.2238V3.42858H15.4286C15.5801 3.42858 15.7255 3.36838 15.8326 3.26121C15.9398 3.15405 16 3.0087 16 2.85715C16 2.7056 15.9398 2.56025 15.8326 2.45309C15.7255 2.34593 15.5801 2.28572 15.4286 2.28572ZM5.33817 1.45869C5.38533 1.36359 5.45818 1.2836 5.54847 1.22778C5.63876 1.17196 5.74288 1.14254 5.84903 1.14287H10.151C10.2571 1.14254 10.3612 1.17196 10.4515 1.22778C10.5418 1.2836 10.6147 1.36359 10.6618 1.45869L11.0753 2.28572H4.92469L5.33817 1.45869ZM13.1429 14.2238C13.1426 14.3917 13.0758 14.5526 12.9571 14.6714C12.8384 14.7901 12.6774 14.8569 12.5095 14.8572H3.49051C3.32261 14.8569 3.16165 14.7901 3.04292 14.6714C2.92419 14.5526 2.85738 14.3917 2.85714 14.2238V3.42858H13.1429V14.2238Z" fill="white"/>
<path d="M8.00002 5.71436C7.84847 5.71436 7.70312 5.77456 7.59596 5.88172C7.48879 5.98889 7.42859 6.13423 7.42859 6.28578V12.0001C7.42859 12.1516 7.48879 12.297 7.59596 12.4041C7.70312 12.5113 7.84847 12.5715 8.00002 12.5715C8.15157 12.5715 8.29692 12.5113 8.40408 12.4041C8.51124 12.297 8.57145 12.1516 8.57145 12.0001V6.28578C8.57145 6.13423 8.51124 5.98889 8.40408 5.88172C8.29692 5.77456 8.15157 5.71436 8.00002 5.71436Z" fill="white"/>
<path d="M5.14284 5.71436C4.99129 5.71436 4.84594 5.77456 4.73878 5.88172C4.63162 5.98889 4.57141 6.13423 4.57141 6.28578V12.0001C4.57141 12.1516 4.63162 12.297 4.73878 12.4041C4.84594 12.5113 4.99129 12.5715 5.14284 12.5715C5.29439 12.5715 5.43974 12.5113 5.5469 12.4041C5.65406 12.297 5.71427 12.1516 5.71427 12.0001V6.28578C5.71427 6.13423 5.65406 5.98889 5.5469 5.88172C5.43974 5.77456 5.29439 5.71436 5.14284 5.71436Z" fill="white"/>
<path d="M10.8572 5.71436C10.7056 5.71436 10.5603 5.77456 10.4531 5.88172C10.346 5.98889 10.2858 6.13423 10.2858 6.28578V12.0001C10.2858 12.1516 10.346 12.297 10.4531 12.4041C10.5603 12.5113 10.7056 12.5715 10.8572 12.5715C11.0087 12.5715 11.1541 12.5113 11.2613 12.4041C11.3684 12.297 11.4286 12.1516 11.4286 12.0001V6.28578C11.4286 6.13423 11.3684 5.98889 11.2613 5.88172C11.1541 5.77456 11.0087 5.71436 10.8572 5.71436Z" fill="white"/>
</g>
<defs>
<clipPath id="clip0">
<rect width="16" height="16" fill="white"/>
</clipPath>
</defs>
</svg>
