<svg width="21" height="20" viewBox="0 0 21 20" fill="none" xmlns="http://www.w3.org/2000/svg">
<path d="M20.0807 6.35921C20.0759 5.20259 19.722 4.07609 19.0679 3.13561C18.4138 2.19513 17.4918 1.48718 16.4296 1.10975C15.3674 0.732307 14.2175 0.70404 13.139 1.02886C12.0605 1.35368 11.1068 2.01552 10.4098 2.92278C9.90986 2.25706 9.26928 1.71718 8.53658 1.34407C7.80388 0.970963 6.99829 0.774403 6.18084 0.769287C4.7414 0.772314 3.36175 1.36222 2.34391 2.40988C1.32606 3.45754 0.752941 4.8776 0.75 6.35921C0.751327 7.06202 0.883549 7.75805 1.13951 8.40961C2.74205 14.0797 10.4209 19.0511 10.4209 19.0511C10.4209 19.0511 18.1109 14.0797 19.7134 8.40961C19.9618 7.75651 20.0864 7.06053 20.0807 6.35921Z" fill="#E64155"/>
</svg>
