<svg width="20" height="15" viewBox="0 0 20 15" fill="none" xmlns="http://www.w3.org/2000/svg">
<path d="M18.7833 6.49497L12.1814 1.12206C12.095 1.05519 11.9907 1.01385 11.8808 1.00292C11.771 0.991985 11.6603 1.01192 11.5617 1.06037C11.4632 1.10881 11.3809 1.18374 11.3247 1.27629C11.2685 1.36884 11.2407 1.47513 11.2446 1.58259V4.38845H10.1851C7.74913 4.38845 5.41292 5.33101 3.69043 7.00877C1.96793 8.68653 1.00024 10.9621 1.00024 13.3348V14C1.79451 12.604 2.95806 11.4407 4.37 10.6308C5.78194 9.82094 7.39077 9.3941 9.02933 9.39464H11.2446V12.7463C11.2412 12.8554 11.2706 12.9631 11.3289 13.0563C11.3873 13.1494 11.4722 13.224 11.5734 13.271C11.6745 13.318 11.7875 13.3354 11.8985 13.3209C12.0096 13.3065 12.114 13.261 12.1989 13.1898L18.8008 7.39899C18.8652 7.34099 18.9162 7.2704 18.9505 7.19184C18.9849 7.11328 19.0018 7.02853 19.0001 6.94316C18.9985 6.85779 18.9783 6.77372 18.9409 6.69648C18.9036 6.61924 18.8499 6.55057 18.7833 6.49497V6.49497Z" stroke="#A6A8AD" stroke-width="1.5" stroke-linecap="round" stroke-linejoin="round"/>
</svg>
