<svg width="16" height="18" viewBox="0 0 16 18" fill="none" xmlns="http://www.w3.org/2000/svg">
<path d="M7.99981 3.90601C6.27181 3.90601 4.90381 5.27401 4.90381 7.00201C4.90381 8.73001 6.27181 10.098 7.99981 10.098C9.72781 10.098 11.0958 8.73001 11.0958 7.00201C11.0958 5.36401 9.72781 3.90601 7.99981 3.90601ZM7.99981 8.37001C7.26181 8.37001 6.72181 7.83001 6.72181 7.09201C6.72181 6.35401 7.26181 5.81401 7.99981 5.81401C8.73781 5.81401 9.27781 6.35401 9.27781 7.09201C9.27781 7.83001 8.73781 8.37001 7.99981 8.37001Z" fill="white"/>
<path d="M7.9998 0C4.0758 0 0.799805 2.916 0.799805 6.462C0.799805 10.638 2.7978 14.652 6.2718 17.37C6.7218 17.73 7.3698 18 7.9998 18C8.6298 18 9.1878 17.82 9.7278 17.37C13.2018 14.544 15.1998 10.638 15.1998 6.462C15.1098 2.916 11.9238 0 7.9998 0ZM8.5398 16.002C8.1798 16.272 7.7118 16.272 7.4418 16.002C4.4358 13.554 2.7078 10.098 2.7078 6.462C2.7078 3.924 5.0838 1.818 8.0898 1.818C11.0058 1.818 13.3818 3.906 13.3818 6.462C13.2918 10.098 11.5458 13.554 8.5398 16.002Z" fill="white"/>
</svg>
