<svg width="15" height="10" viewBox="0 0 15 10" fill="none" xmlns="http://www.w3.org/2000/svg">
<g clipPath="url(#clip0)">
<path d="M14.9616 5.13585C14.9821 5.09351 14.9927 5.04731 14.9927 5.00053C14.9927 4.95375 14.9821 4.90755 14.9616 4.86521C14.6 4.06007 12.5138 -0.0535979 7.51381 0.000529278C7.29509 0.00259861 7.07674 0.0184187 6.86012 0.0478906C2.333 0.440313 0.378896 4.1142 0.0311906 4.86521C0.0107304 4.90755 0.00012207 4.95375 0.00012207 5.00053C0.00012207 5.04731 0.0107304 5.09351 0.0311906 5.13585C0.392804 5.94099 2.49294 10.0614 7.48599 10.0005C7.70471 9.99846 7.92306 9.98264 8.13968 9.95317C12.6529 9.56075 14.6 5.88686 14.9616 5.13585Z" fill="#BEBEBE"/>
<path d="M7.49654 7.82147C9.09809 7.82147 10.3964 6.5583 10.3964 5.00009C10.3964 3.44189 9.09809 2.17871 7.49654 2.17871C5.89499 2.17871 4.59668 3.44189 4.59668 5.00009C4.59668 6.5583 5.89499 7.82147 7.49654 7.82147Z" stroke="white" stroke-width="1.5" stroke-miterlimit="10" stroke-linecap="round"/>
</g>
<defs>
<clipPath id="clip0">
<rect width="15" height="10" fill="white"/>
</clipPath>
</defs>
</svg>
