<svg width="16" height="16" viewBox="0 0 16 16" fill="none" xmlns="http://www.w3.org/2000/svg">
<g clipPath="url(#clip0)">
<path d="M15.4142 6.58579C16.1953 7.36683 16.1953 8.63317 15.4142 9.41422C14.6332 10.1953 13.3668 10.1953 12.5858 9.41422C11.8047 8.63317 11.8047 7.36683 12.5858 6.58579C13.3668 5.80474 14.6332 5.80474 15.4142 6.58579Z" fill="#5F666F"/>
<path d="M9.41432 6.58579C10.1954 7.36683 10.1954 8.63317 9.41432 9.41422C8.63328 10.1953 7.36695 10.1953 6.5859 9.41422C5.80486 8.63317 5.80486 7.36683 6.5859 6.58579C7.36695 5.80474 8.63328 5.80474 9.41432 6.58579Z" fill="#5F666F"/>
<path d="M3.41409 6.58579C4.19513 7.36683 4.19513 8.63317 3.41409 9.41422C2.63304 10.1953 1.36671 10.1953 0.585662 9.41422C-0.195383 8.63317 -0.195383 7.36683 0.585662 6.58579C1.36671 5.80474 2.63304 5.80474 3.41409 6.58579Z" fill="#5F666F"/>
</g>
<defs>
<clipPath id="clip0">
<rect width="16" height="16" fill="white"/>
</clipPath>
</defs>
</svg>
