<svg width="16" height="12" viewBox="0 0 16 12" fill="none" xmlns="http://www.w3.org/2000/svg">
<path d="M14.9694 1.59C14.6966 1.44701 14.39 1.38138 14.0826 1.40022C13.7752 1.41906 13.4789 1.52165 13.2256 1.69688L12.4606 2.22563C12.3671 1.70715 12.0946 1.23793 11.6906 0.899742C11.2867 0.561557 10.7768 0.375854 10.25 0.375H2.375C1.77826 0.375 1.20597 0.612053 0.78401 1.03401C0.362053 1.45597 0.125 2.02826 0.125 2.625V9.375C0.125 9.97174 0.362053 10.544 0.78401 10.966C1.20597 11.3879 1.77826 11.625 2.375 11.625H10.25C10.7768 11.6241 11.2867 11.4384 11.6906 11.1003C12.0946 10.7621 12.3671 10.2929 12.4606 9.77437L13.2256 10.3031C13.4789 10.4784 13.7752 10.5809 14.0826 10.5998C14.39 10.6186 14.6966 10.553 14.9694 10.41C15.2426 10.2671 15.4715 10.0521 15.6312 9.78836C15.7908 9.52457 15.8751 9.22209 15.875 8.91375V3.08625C15.8751 2.77791 15.7908 2.47543 15.6312 2.21164C15.4715 1.94786 15.2426 1.73286 14.9694 1.59ZM11.375 9.375C11.375 9.67337 11.2565 9.95952 11.0455 10.1705C10.8345 10.3815 10.5484 10.5 10.25 10.5H2.375C2.07663 10.5 1.79048 10.3815 1.5795 10.1705C1.36853 9.95952 1.25 9.67337 1.25 9.375V2.625C1.25 2.32663 1.36853 2.04048 1.5795 1.82951C1.79048 1.61853 2.07663 1.5 2.375 1.5H10.25C10.5484 1.5 10.8345 1.61853 11.0455 1.82951C11.2565 2.04048 11.375 2.32663 11.375 2.625V9.375ZM14.75 8.91375C14.7502 9.01704 14.722 9.1184 14.6684 9.2067C14.6148 9.29501 14.538 9.36686 14.4462 9.41438C14.3578 9.45871 14.2592 9.47894 14.1605 9.47302C14.0617 9.46709 13.9663 9.43522 13.8837 9.38062L12.5 8.43563V3.56437L13.8669 2.625C13.9494 2.5704 14.0448 2.53853 14.1436 2.53261C14.2424 2.52668 14.3409 2.54691 14.4294 2.59125C14.5211 2.63876 14.5979 2.71061 14.6515 2.79892C14.7051 2.88723 14.7333 2.98858 14.7331 3.09188L14.75 8.91375Z" fill="white"/>
</svg>
