<svg width="19" height="16" viewBox="0 0 19 16" fill="none" xmlns="http://www.w3.org/2000/svg">
<path d="M8.21158 1H10.7879C11.735 1 12.6728 1.18106 13.5478 1.53284C14.4228 1.88463 15.2178 2.40024 15.8875 3.05025C16.5571 3.70026 17.0884 4.47194 17.4508 5.32122C17.8132 6.1705 17.9998 7.08075 17.9998 8V8C17.9998 9.85652 17.2399 11.637 15.8875 12.9497C14.535 14.2625 12.7006 15 10.7879 15H0.999756V8C0.999756 6.14348 1.75957 4.36301 3.11205 3.05025C4.46453 1.7375 6.29889 1 8.21158 1V1Z" stroke="#A6A8AD" stroke-width="1.5" stroke-linecap="round" stroke-linejoin="round"/>
<path d="M14.0492 9.38576C14.8312 9.38576 15.4652 8.76534 15.4652 8.00001C15.4652 7.23468 14.8312 6.61426 14.0492 6.61426C13.2672 6.61426 12.6332 7.23468 12.6332 8.00001C12.6332 8.76534 13.2672 9.38576 14.0492 9.38576Z" fill="#A6A8AD"/>
<path d="M9.62049 9.38576C10.4025 9.38576 11.0365 8.76534 11.0365 8.00001C11.0365 7.23468 10.4025 6.61426 9.62049 6.61426C8.83848 6.61426 8.20453 7.23468 8.20453 8.00001C8.20453 8.76534 8.83848 9.38576 9.62049 9.38576Z" fill="#A6A8AD"/>
<path d="M5.19184 9.38576C5.97386 9.38576 6.6078 8.76534 6.6078 8.00001C6.6078 7.23468 5.97386 6.61426 5.19184 6.61426C4.40983 6.61426 3.77588 7.23468 3.77588 8.00001C3.77588 8.76534 4.40983 9.38576 5.19184 9.38576Z" fill="#A6A8AD"/>
</svg>
