<svg width="21" height="20" viewBox="0 0 21 20" fill="none" xmlns="http://www.w3.org/2000/svg">
<path d="M19.9998 6.50376C19.9951 5.36497 19.6473 4.25583 19.0043 3.32985C18.3614 2.40387 17.4553 1.70683 16.4112 1.33521C15.3672 0.96359 14.237 0.935759 13.1769 1.25557C12.1169 1.57538 11.1795 2.22702 10.4944 3.1203C10.0031 2.46484 9.37346 1.93329 8.6533 1.56593C7.93315 1.19857 7.14134 1.00504 6.33789 1C4.92308 1.00298 3.56705 1.5838 2.56662 2.61531C1.5662 3.64682 1.00289 5.04499 1 6.50376C1.0013 7.19574 1.13126 7.88104 1.38284 8.52256C2.95795 14.1053 10.5054 19 10.5054 19C10.5054 19 18.0637 14.1053 19.6388 8.52256C19.8829 7.87952 20.0055 7.19427 19.9998 6.50376Z" stroke="#A6A8AD" stroke-width="1.5" stroke-linecap="round" stroke-linejoin="round"/>
</svg>
