<svg width="15" height="13" viewBox="0 0 15 13" fill="none" xmlns="http://www.w3.org/2000/svg">
<path d="M13.1851 0H1.8149C0.81256 0 0 0.804085 0 1.79597V11.204C0 12.1959 0.81256 13 1.8149 13H13.1851C14.1874 13 15 12.1959 15 11.204V1.79597C15 0.804085 14.1874 0 13.1851 0Z" fill="#C8CAD0"/>
<path d="M11.274 4.47793C11.9478 4.47793 12.494 3.93744 12.494 3.2707C12.494 2.60397 11.9478 2.06348 11.274 2.06348C10.6003 2.06348 10.0541 2.60397 10.0541 3.2707C10.0541 3.93744 10.6003 4.47793 11.274 4.47793Z" fill="white"/>
<path d="M11.244 10.7395L3.53362 10.799C3.35898 10.7993 3.18744 10.7532 3.03701 10.6654C2.88657 10.5776 2.76277 10.4514 2.67858 10.3C2.59439 10.1486 2.55291 9.97751 2.5585 9.80477C2.56408 9.63203 2.61651 9.46396 2.71031 9.31817L4.30886 6.87398C4.41782 6.70706 4.56731 6.56981 4.74368 6.47477C4.92004 6.37973 5.11766 6.32994 5.31848 6.32994C5.5193 6.32994 5.71691 6.37973 5.89328 6.47477C6.06964 6.56981 6.21913 6.70706 6.32809 6.87398C6.40185 6.98564 6.50256 7.07736 6.62113 7.14083C6.73969 7.20431 6.87237 7.23755 7.00718 7.23755C7.14198 7.23755 7.27467 7.20431 7.39323 7.14083C7.5118 7.07736 7.61251 6.98564 7.68627 6.87398L8.73795 5.20884C8.81977 5.08031 8.93511 4.97599 9.07181 4.90689C9.20852 4.83778 9.36154 4.80645 9.51473 4.81619C9.66793 4.82593 9.81563 4.87639 9.94228 4.96224C10.0689 5.04809 10.1698 5.16615 10.2343 5.30399L12.1214 9.46685C12.1713 9.60833 12.187 9.75944 12.1672 9.90802C12.1474 10.0566 12.0926 10.1985 12.0072 10.3223C11.9219 10.4461 11.8084 10.5483 11.6758 10.6208C11.5432 10.6933 11.3953 10.7339 11.244 10.7395Z" fill="white"/>
</svg>
