<svg width="28" height="28" viewBox="0 0 28 28" fill="none" xmlns="http://www.w3.org/2000/svg">
<g clip-path="url(#clip0)">
<path d="M20.6069 3.64361L3.63578 20.5219C3.40336 20.7529 3.02647 20.748 2.80034 20.5108L0.498422 18.0939C-0.1592 17.4029 -0.144704 16.3133 0.531762 15.6407L15.8035 0.453586C16.392 -0.131557 17.3357 -0.153301 17.9503 0.4043L20.5875 2.79609C20.8354 3.02077 20.8441 3.40733 20.6069 3.64361Z" fill="#415BF6"/>
<path d="M7.39489 24.356L24.366 7.47769C24.5984 7.24673 24.9753 7.25156 25.2014 7.4888L27.5033 9.90572C28.1609 10.5967 28.1464 11.6863 27.47 12.3589L12.1983 27.5465C11.6098 28.1316 10.6661 28.1534 10.0515 27.5958L7.41422 25.204C7.16682 24.9788 7.15764 24.5923 7.39489 24.356Z" fill="#415BF6"/>
<path d="M24.357 20.6044L7.47867 3.63333C7.2477 3.40092 7.25253 3.02403 7.48978 2.7979L9.9067 0.495981C10.5977 -0.161641 11.6873 -0.147145 12.3599 0.529321L27.547 15.801C28.1321 16.3895 28.1539 17.3332 27.5963 17.9478L25.2045 20.5851C24.9798 20.833 24.5928 20.8417 24.357 20.6044Z" fill="#415BF6"/>
<path d="M3.64361 7.39507L20.5219 24.3661C20.7529 24.5986 20.748 24.9754 20.5108 25.2016L18.0939 27.5035C17.4029 28.1611 16.3133 28.1466 15.6407 27.4702L0.453586 12.1985C-0.131557 11.6099 -0.153301 10.6663 0.4043 10.0516L2.79609 7.41439C3.02126 7.16652 3.40781 7.15782 3.64361 7.39507Z" fill="#415BF6"/>
</g>
<defs>
<clipPath id="clip0">
<rect width="28" height="28" fill="white"/>
</clipPath>
</defs>
</svg>
