<svg width="40" height="40" viewBox="0 0 40 40" fill="none" xmlns="http://www.w3.org/2000/svg">
<circle cx="20" cy="20" r="20" fill="#415BF6"/>
<g clipPath="url(#clip0)">
<path d="M24.3794 13.1301L13.1217 24.3263C12.9675 24.4795 12.7175 24.4763 12.5675 24.3189L11.0405 22.7157C10.6043 22.2573 10.6139 21.5345 11.0626 21.0884L21.1931 11.014C21.5835 10.6258 22.2095 10.6114 22.6172 10.9813L24.3666 12.5679C24.5311 12.7169 24.5368 12.9733 24.3794 13.1301Z" fill="white"/>
<path d="M15.6182 26.8698L26.8759 15.6735C27.0301 15.5203 27.2801 15.5235 27.4301 15.6809L28.9571 17.2842C29.3933 17.7425 29.3837 18.4653 28.935 18.9115L18.8045 28.9862C18.4141 29.3743 17.7881 29.3888 17.3804 29.0189L15.631 27.4323C15.4669 27.2829 15.4608 27.0265 15.6182 26.8698Z" fill="white"/>
<path d="M26.8702 24.3811L15.674 13.1233C15.5208 12.9692 15.524 12.7191 15.6813 12.5691L17.2846 11.0422C17.743 10.6059 18.4657 10.6155 18.9119 11.0643L28.9863 21.1948C29.3745 21.5852 29.3889 22.2111 29.019 22.6189L27.4324 24.3683C27.2834 24.5327 27.0266 24.5385 26.8702 24.3811Z" fill="white"/>
<path d="M13.1302 15.6187L24.3265 26.8764C24.4797 27.0306 24.4765 27.2806 24.3191 27.4306L22.7158 28.9576C22.2575 29.3938 21.5347 29.3842 21.0885 28.9355L11.0141 18.805C10.626 18.4146 10.6116 17.7886 10.9814 17.3809L12.568 15.6315C12.7174 15.467 12.9738 15.4613 13.1302 15.6187Z" fill="white"/>
</g>
<defs>
<clipPath id="clip0">
<rect x="9.55225" y="9.55225" width="20.8955" height="20.8955" fill="white"/>
</clipPath>
</defs>
</svg>
