<svg width="180" height="32" viewBox="0 0 180 32" fill="none" xmlns="http://www.w3.org/2000/svg">
<g clipPath="url(#clip0)">
<path d="M23.5467 4.16412L4.15113 23.4536C3.88551 23.7176 3.45478 23.7121 3.19634 23.4409L0.565579 20.6787C-0.185988 19.8891 -0.169422 18.6438 0.603683 17.8751L18.0571 0.518384C18.7297 -0.150351 19.8081 -0.175201 20.5106 0.462057L23.5246 3.19553C23.8078 3.45231 23.8178 3.89409 23.5467 4.16412Z" fill="#415BF6"/>
<path d="M8.45074 27.8357L27.8463 8.54618C28.1119 8.28222 28.5426 8.28774 28.801 8.55888L31.4318 11.3211C32.1834 12.1107 32.1668 13.356 31.3937 14.1247L13.9403 31.482C13.2677 32.1507 12.1893 32.1755 11.4868 31.5383L8.47283 28.8048C8.1901 28.5475 8.17961 28.1057 8.45074 27.8357Z" fill="#415BF6"/>
<path d="M27.4839 23.534L8.19437 4.13843C7.93041 3.87281 7.93593 3.44208 8.20707 3.18365L10.9693 0.552884C11.7589 -0.198683 13.0042 -0.182117 13.7729 0.590987L31.1296 18.0444C31.7983 18.717 31.8232 19.7954 31.1859 20.4979L28.4525 23.5119C28.1957 23.7951 27.7533 23.8051 27.4839 23.534Z" fill="#415BF6"/>
<path d="M4.16412 8.45143L23.4536 27.847C23.7176 28.1126 23.7121 28.5433 23.4409 28.8017L20.6787 31.4325C19.8891 32.1841 18.6438 32.1675 17.8751 31.3944L0.518383 13.941C-0.150351 13.2684 -0.175201 12.1899 0.462057 11.4875L3.19553 8.47352C3.45287 8.19023 3.89464 8.18029 4.16412 8.45143Z" fill="#415BF6"/>
</g>
<path d="M46.628 14.692C46.628 15.0387 46.8533 15.3247 47.304 15.55C47.772 15.758 48.3353 15.9487 48.994 16.122C49.6527 16.278 50.3113 16.486 50.97 16.746C51.6287 16.9887 52.1833 17.4047 52.634 17.994C53.102 18.5833 53.336 19.32 53.336 20.204C53.336 21.5387 52.8333 22.57 51.828 23.298C50.84 24.0087 49.6007 24.364 48.11 24.364C45.4407 24.364 43.6207 23.3327 42.65 21.27L45.562 19.632C45.9433 20.7587 46.7927 21.322 48.11 21.322C49.306 21.322 49.904 20.9493 49.904 20.204C49.904 19.8573 49.67 19.58 49.202 19.372C48.7513 19.1467 48.1967 18.9473 47.538 18.774C46.8793 18.6007 46.2207 18.384 45.562 18.124C44.9033 17.864 44.34 17.4567 43.872 16.902C43.4213 16.33 43.196 15.6193 43.196 14.77C43.196 13.4873 43.664 12.482 44.6 11.754C45.5533 11.0087 46.732 10.636 48.136 10.636C49.1933 10.636 50.1553 10.8787 51.022 11.364C51.8887 11.832 52.5733 12.508 53.076 13.392L50.216 14.952C49.8 14.068 49.1067 13.626 48.136 13.626C47.7027 13.626 47.3387 13.7213 47.044 13.912C46.7667 14.1027 46.628 14.3627 46.628 14.692ZM63.1859 10.636C64.9366 10.636 66.4273 11.3033 67.6579 12.638C68.9059 13.9553 69.5299 15.576 69.5299 17.5C69.5299 19.424 68.9059 21.0533 67.6579 22.388C66.4273 23.7053 64.9366 24.364 63.1859 24.364C61.3659 24.364 59.9619 23.7313 58.9739 22.466V29.2H55.6199V11H58.9739V12.534C59.9619 11.2687 61.3659 10.636 63.1859 10.636ZM59.9879 20.152C60.6639 20.828 61.5219 21.166 62.5619 21.166C63.6019 21.166 64.4599 20.828 65.1359 20.152C65.8293 19.4587 66.1759 18.5747 66.1759 17.5C66.1759 16.4253 65.8293 15.55 65.1359 14.874C64.4599 14.1807 63.6019 13.834 62.5619 13.834C61.5219 13.834 60.6639 14.1807 59.9879 14.874C59.3119 15.55 58.9739 16.4253 58.9739 17.5C58.9739 18.5747 59.3119 19.4587 59.9879 20.152ZM74.7293 18.878C75.18 20.5073 76.402 21.322 78.3953 21.322C79.678 21.322 80.6487 20.8887 81.3073 20.022L84.0113 21.582C82.7287 23.4367 80.8393 24.364 78.3433 24.364C76.194 24.364 74.4693 23.714 73.1693 22.414C71.8693 21.114 71.2193 19.476 71.2193 17.5C71.2193 15.5413 71.8607 13.912 73.1433 12.612C74.426 11.2947 76.0727 10.636 78.0833 10.636C79.99 10.636 81.5587 11.2947 82.7893 12.612C84.0373 13.9293 84.6613 15.5587 84.6613 17.5C84.6613 17.9333 84.618 18.3927 84.5313 18.878H74.7293ZM74.6773 16.278H81.3073C81.1167 15.394 80.718 14.7353 80.1113 14.302C79.522 13.8687 78.846 13.652 78.0833 13.652C77.182 13.652 76.4367 13.886 75.8473 14.354C75.258 14.8047 74.868 15.446 74.6773 16.278ZM94.2308 10.636C95.6521 10.636 96.8221 11.1127 97.7408 12.066C98.6768 13.0193 99.1448 14.3367 99.1448 16.018V24H95.7908V16.434C95.7908 15.5673 95.5568 14.9087 95.0888 14.458C94.6208 13.99 93.9968 13.756 93.2168 13.756C92.3501 13.756 91.6568 14.0247 91.1368 14.562C90.6168 15.0993 90.3568 15.9053 90.3568 16.98V24H87.0028V11H90.3568V12.456C91.1714 11.2427 92.4628 10.636 94.2308 10.636ZM111.863 5.8H115.217V24H111.863V22.466C110.875 23.7313 109.471 24.364 107.651 24.364C105.9 24.364 104.401 23.7053 103.153 22.388C101.922 21.0533 101.307 19.424 101.307 17.5C101.307 15.576 101.922 13.9553 103.153 12.638C104.401 11.3033 105.9 10.636 107.651 10.636C109.471 10.636 110.875 11.2687 111.863 12.534V5.8ZM105.675 20.152C106.368 20.828 107.235 21.166 108.275 21.166C109.315 21.166 110.173 20.828 110.849 20.152C111.525 19.4587 111.863 18.5747 111.863 17.5C111.863 16.4253 111.525 15.55 110.849 14.874C110.173 14.1807 109.315 13.834 108.275 13.834C107.235 13.834 106.368 14.1807 105.675 14.874C104.999 15.55 104.661 16.4253 104.661 17.5C104.661 18.5747 104.999 19.4587 105.675 20.152ZM125.72 14.224H122.782V19.632C122.782 20.0827 122.895 20.412 123.12 20.62C123.345 20.828 123.675 20.9493 124.108 20.984C124.541 21.0013 125.079 20.9927 125.72 20.958V24C123.415 24.26 121.785 24.0433 120.832 23.35C119.896 22.6567 119.428 21.4173 119.428 19.632V14.224H117.166V11H119.428V8.374L122.782 7.36V11H125.72V14.224ZM131.642 13.236C131.954 12.404 132.465 11.78 133.176 11.364C133.904 10.948 134.71 10.74 135.594 10.74V14.484C134.571 14.3627 133.653 14.5707 132.838 15.108C132.041 15.6453 131.642 16.538 131.642 17.786V24H128.288V11H131.642V13.236ZM146.953 11H150.307V24H146.953V22.466C145.948 23.7313 144.535 24.364 142.715 24.364C140.982 24.364 139.491 23.7053 138.243 22.388C137.012 21.0533 136.397 19.424 136.397 17.5C136.397 15.576 137.012 13.9553 138.243 12.638C139.491 11.3033 140.982 10.636 142.715 10.636C144.535 10.636 145.948 11.2687 146.953 12.534V11ZM140.765 20.152C141.441 20.828 142.299 21.166 143.339 21.166C144.379 21.166 145.237 20.828 145.913 20.152C146.606 19.4587 146.953 18.5747 146.953 17.5C146.953 16.4253 146.606 15.55 145.913 14.874C145.237 14.1807 144.379 13.834 143.339 13.834C142.299 13.834 141.441 14.1807 140.765 14.874C140.089 15.55 139.751 16.4253 139.751 17.5C139.751 18.5747 140.089 19.4587 140.765 20.152ZM159.536 24.364C157.578 24.364 155.94 23.7053 154.622 22.388C153.322 21.0707 152.672 19.4413 152.672 17.5C152.672 15.5587 153.322 13.9293 154.622 12.612C155.94 11.2947 157.578 10.636 159.536 10.636C160.802 10.636 161.954 10.9393 162.994 11.546C164.034 12.1527 164.823 12.9673 165.36 13.99L162.474 15.68C162.214 15.1427 161.816 14.718 161.278 14.406C160.758 14.094 160.169 13.938 159.51 13.938C158.505 13.938 157.673 14.276 157.014 14.952C156.356 15.6107 156.026 16.46 156.026 17.5C156.026 18.5227 156.356 19.372 157.014 20.048C157.673 20.7067 158.505 21.036 159.51 21.036C160.186 21.036 160.784 20.8887 161.304 20.594C161.842 20.282 162.24 19.8573 162.5 19.32L165.412 20.984C164.84 22.0067 164.034 22.83 162.994 23.454C161.954 24.0607 160.802 24.364 159.536 24.364ZM179.172 24H175.272L170.54 18.098V24H167.186V5.8H170.54V16.72L175.012 11H179.016L173.79 17.422L179.172 24Z" fill="black"/>
<defs>
<clipPath id="clip0">
<rect width="32" height="32" fill="white"/>
</clipPath>
</defs>
</svg>
