<svg width="24" height="24" viewBox="0 0 24 24" fill="none" xmlns="http://www.w3.org/2000/svg">
            <path d="M20.8624 13.9399H17.1649C16.3336 13.9425 15.537 14.2771 14.9491 14.8707C14.3613 15.4642 14.0299 16.2686 14.0273 17.108V20.8318C14.0299 21.6713 14.3613 22.4756 14.9491 23.0692C15.537 23.6628 16.3336 23.9974 17.1649 24H20.8624C21.6938 23.9974 22.4903 23.6628 23.0782 23.0692C23.6661 22.4756 23.9974 21.6713 24 20.8318V17.108C23.9974 16.2686 23.6661 15.4642 23.0782 14.8707C22.4903 14.2771 21.6938 13.9425 20.8624 13.9399V13.9399ZM22.5519 20.8318C22.5493 21.2835 22.3705 21.7159 22.0542 22.0353C21.738 22.3547 21.3097 22.5352 20.8624 22.5378H17.1649C16.941 22.5403 16.7187 22.4982 16.511 22.4137C16.3032 22.3293 16.1141 22.2042 15.9544 22.0456C15.7947 21.8871 15.6676 21.6982 15.5804 21.4899C15.4933 21.2816 15.4477 21.058 15.4465 20.8318V17.108C15.4465 16.6556 15.6245 16.2217 15.9413 15.9018C16.2582 15.5818 16.6879 15.4021 17.136 15.4021H20.8335C21.2815 15.4021 21.7113 15.5818 22.0281 15.9018C22.3449 16.2217 22.5229 16.6556 22.5229 17.108L22.5519 20.8318Z" fill="#686E7C"></path>
            <path d="M19.0185 10.0601C20.0033 10.0582 20.9655 9.76153 21.7834 9.20765C22.6014 8.65377 23.2384 7.86751 23.6139 6.94822C23.9895 6.02893 24.0867 5.01786 23.8934 4.04277C23.7001 3.06768 23.2249 2.17232 22.5279 1.46983C21.8308 0.767339 20.9432 0.28924 19.9771 0.0959427C19.0111 -0.0973544 18.01 0.00282511 17.1003 0.383823C16.1906 0.764821 15.4132 1.40954 14.8662 2.23652C14.3193 3.06349 14.0273 4.03561 14.0273 5.03005C14.0299 6.365 14.5569 7.64439 15.4926 8.58743C16.4284 9.53047 17.6964 10.0601 19.0185 10.0601V10.0601ZM19.0185 1.46222C19.7156 1.46991 20.3949 1.68568 20.9709 2.08237C21.5469 2.47906 21.9937 3.03893 22.2553 3.6915C22.5168 4.34408 22.5813 5.06019 22.4406 5.74969C22.2999 6.4392 21.9604 7.07127 21.4647 7.56635C20.9691 8.06142 20.3395 8.39738 19.6551 8.53191C18.9708 8.66644 18.2623 8.59355 17.6189 8.3224C16.9755 8.05125 16.426 7.59397 16.0394 7.00812C15.6528 6.42227 15.4465 5.73403 15.4465 5.03005C15.4477 4.55859 15.5413 4.09202 15.7217 3.65718C15.9021 3.22234 16.1659 2.8278 16.4979 2.49624C16.8298 2.16468 17.2234 1.90264 17.656 1.72518C18.0885 1.54773 18.5516 1.45836 19.0185 1.46222V1.46222Z" fill="#686E7C"></path>
            <path d="M6.82542 0H3.13757C2.30622 0.00257109 1.50964 0.337184 0.921786 0.930772C0.333928 1.52436 0.00254627 2.3287 0 3.16816L0 6.89196C0.00254627 7.73141 0.333928 8.53575 0.921786 9.12934C1.50964 9.72293 2.30622 10.0575 3.13757 10.0601H6.82542C7.65677 10.0575 8.45335 9.72293 9.04121 9.12934C9.62906 8.53575 9.96045 7.73141 9.96299 6.89196V3.16816C9.96045 2.3287 9.62906 1.52436 9.04121 0.930772C8.45335 0.337184 7.65677 0.00257109 6.82542 0V0ZM8.51488 6.89196C8.51488 7.3444 8.33689 7.77831 8.02005 8.09823C7.70322 8.41816 7.2735 8.59789 6.82542 8.59789H3.13757C2.6895 8.59789 2.25978 8.41816 1.94294 8.09823C1.62611 7.77831 1.44811 7.3444 1.44811 6.89196V3.16816C1.45064 2.7165 1.62945 2.28408 1.94574 1.96471C2.26203 1.64534 2.69028 1.46478 3.13757 1.46223H6.82542C7.2735 1.46223 7.70322 1.64196 8.02005 1.96188C8.33689 2.28181 8.51488 2.71572 8.51488 3.16816V6.89196Z" fill="#686E7C"></path>
            <path d="M6.82542 13.9399H3.13757C2.30622 13.9425 1.50964 14.2771 0.921786 14.8707C0.333928 15.4642 0.00254627 16.2686 0 17.108L0 20.8318C0.00254627 21.6713 0.333928 22.4756 0.921786 23.0692C1.50964 23.6628 2.30622 23.9974 3.13757 24H6.82542C7.65677 23.9974 8.45335 23.6628 9.04121 23.0692C9.62906 22.4756 9.96045 21.6713 9.96299 20.8318V17.108C9.96045 16.2686 9.62906 15.4642 9.04121 14.8707C8.45335 14.2771 7.65677 13.9425 6.82542 13.9399V13.9399ZM8.51488 20.8318C8.51488 21.2843 8.33689 21.7182 8.02005 22.0381C7.70322 22.358 7.2735 22.5378 6.82542 22.5378H3.13757C2.69028 22.5352 2.26203 22.3547 1.94574 22.0353C1.62945 21.7159 1.45064 21.2835 1.44811 20.8318V17.108C1.44811 16.6556 1.62611 16.2217 1.94294 15.9018C2.25978 15.5818 2.6895 15.4021 3.13757 15.4021H6.82542C7.2735 15.4021 7.70322 15.5818 8.02005 15.9018C8.33689 16.2217 8.51488 16.6556 8.51488 17.108V20.8318Z" fill="#686E7C"></path>
          </svg>