<svg width="25" height="22" viewBox="0 0 25 22" fill="none" xmlns="http://www.w3.org/2000/svg">
                  <path d="M20.1949 9.9053H0V4.94783C0 3.63558 0.50626 2.37708 1.40741 1.44919C2.30856 0.521288 3.53077 0 4.80519 0L20.1949 0C21.4338 0.0563104 22.6039 0.602712 23.4613 1.52535C24.3186 2.44799 24.7972 3.6757 24.7972 4.95265C24.7972 6.22961 24.3186 7.45732 23.4613 8.37995C22.6039 9.30259 21.4338 9.84899 20.1949 9.9053ZM1.40503 8.45857H20.1949C21.067 8.41145 21.8884 8.02153 22.4895 7.36921C23.0907 6.71689 23.4258 5.85191 23.4258 4.95265C23.4258 4.05339 23.0907 3.18841 22.4895 2.53609C21.8884 1.88377 21.067 1.49385 20.1949 1.44673H4.80519C3.90417 1.44928 3.04076 1.81896 2.40364 2.47499C1.76652 3.13102 1.4075 4.02006 1.40503 4.94783V8.45857Z" fill="#686E7C"/>
                  <path d="M12.5891 5.15041H4.50549C4.31917 5.15041 4.14049 5.0742 4.00874 4.93854C3.87699 4.80288 3.80298 4.61889 3.80298 4.42704C3.80298 4.23519 3.87699 4.0512 4.00874 3.91554C4.14049 3.77989 4.31917 3.70367 4.50549 3.70367H12.5891C12.7754 3.70367 12.9541 3.77989 13.0858 3.91554C13.2176 4.0512 13.2916 4.23519 13.2916 4.42704C13.2916 4.61889 13.2176 4.80288 13.0858 4.93854C12.9541 5.0742 12.7754 5.15041 12.5891 5.15041V5.15041Z" fill="#686E7C"/>
                  <path d="M25 22H4.80513C3.56619 21.9437 2.39614 21.3973 1.53878 20.4746C0.681418 19.552 0.202881 18.3243 0.202881 17.0473C0.202881 15.7704 0.681418 14.5427 1.53878 13.62C2.39614 12.6974 3.56619 12.151 4.80513 12.0947H20.1948C21.4693 12.0947 22.6915 12.616 23.5926 13.5439C24.4938 14.4717 25 15.7302 25 17.0425V22ZM4.80513 13.5028C3.93299 13.5499 3.11166 13.9399 2.51052 14.5922C1.90937 15.2445 1.57424 16.1095 1.57424 17.0087C1.57424 17.908 1.90937 18.773 2.51052 19.4253C3.11166 20.0776 3.93299 20.4675 4.80513 20.5147H23.595V17.0425C23.5987 16.5798 23.5136 16.121 23.3445 15.6923C23.1754 15.2637 22.9257 14.8737 22.6097 14.5447C22.2937 14.2158 21.9177 13.9544 21.5033 13.7756C21.0888 13.5968 20.6442 13.5041 20.1948 13.5028H4.80513Z" fill="#686E7C"/>
                  <path d="M10.2944 18.4025C11.0238 18.4025 11.6151 17.7936 11.6151 17.0425C11.6151 16.2915 11.0238 15.6826 10.2944 15.6826C9.56494 15.6826 8.97363 16.2915 8.97363 17.0425C8.97363 17.7936 9.56494 18.4025 10.2944 18.4025Z" fill="#686E7C"/>
                  <path d="M14.79 18.4025C15.5194 18.4025 16.1107 17.7936 16.1107 17.0425C16.1107 16.2915 15.5194 15.6826 14.79 15.6826C14.0605 15.6826 13.4692 16.2915 13.4692 17.0425C13.4692 17.7936 14.0605 18.4025 14.79 18.4025Z" fill="#686E7C"/>
                  <path d="M19.2863 18.4025C20.0157 18.4025 20.607 17.7936 20.607 17.0425C20.607 16.2915 20.0157 15.6826 19.2863 15.6826C18.5569 15.6826 17.9656 16.2915 17.9656 17.0425C17.9656 17.7936 18.5569 18.4025 19.2863 18.4025Z" fill="#686E7C"/>
                </svg>