<svg width="16" height="16" viewBox="0 0 16 16" fill="none" xmlns="http://www.w3.org/2000/svg">
<g clip-path="url(#clip0)">
<path d="M8.00016 2.45312C9.36462 2.45313 10.6732 2.98969 11.638 3.94478C12.6028 4.89987 13.1449 6.19526 13.1449 7.54596V9.5067H2.85547V7.55445C2.85547 6.20375 3.3975 4.90836 4.36231 3.95327C5.32713 2.99818 6.63571 2.46161 8.00016 2.46161V2.45312Z" stroke="current" stroke-width="1.5" stroke-linecap="round" stroke-linejoin="round"/>
<path d="M8 2.45316V0.636719" stroke="current" stroke-width="1.5" stroke-linecap="round" stroke-linejoin="round"/>
<path d="M3.27592 9.51514H12.7079C13.406 9.51514 14.0756 9.78968 14.5692 10.2784C15.0629 10.7671 15.3402 11.4299 15.3402 12.121V12.121C15.3402 12.4316 15.2156 12.7296 14.9937 12.9492C14.7717 13.1689 14.4708 13.2923 14.157 13.2923H1.82683C1.51301 13.2923 1.21204 13.1689 0.990129 12.9492C0.768221 12.7296 0.643555 12.4316 0.643555 12.121V12.121C0.643555 11.4299 0.920893 10.7671 1.41456 10.2784C1.90822 9.78968 2.57778 9.51514 3.27592 9.51514V9.51514Z" stroke="current" stroke-width="1.5" stroke-linecap="round" stroke-linejoin="round"/>
<path d="M10.2125 13.1738C10.2125 13.7546 9.97945 14.3116 9.56458 14.7223C9.14971 15.133 8.58702 15.3637 8.0003 15.3637C7.41359 15.3637 6.8509 15.133 6.43603 14.7223C6.02116 14.3116 5.78809 13.7546 5.78809 13.1738" stroke="current" stroke-width="1.5" stroke-linejoin="round"/>
</g>
<defs>
<clipPath id="clip0">
<rect width="16" height="16" fill="white"/>
</clipPath>
</defs>
</svg>
