<svg width="18" height="18" viewBox="0 0 18 18" fill="none" xmlns="http://www.w3.org/2000/svg">
  <path d="M10.6444 2.41822e-05H10.5534C9.1237 -0.00357274 7.72173 0.394158 6.50688 1.14798C5.29203 1.90181 4.31306 2.98148 3.6813 4.2642C3.04954 5.54692 2.79035 6.98122 2.9332 8.40397C3.07605 9.82672 3.61521 11.1808 4.48936 12.3123L0.27371 16.4376C0.188218 16.5214 0.120048 16.6211 0.0730938 16.7312C0.0261393 16.8412 0.00131942 16.9595 5.11902e-05 17.0791C-0.00121704 17.1988 0.0210913 17.3175 0.0657024 17.4285C0.110313 17.5396 0.176354 17.6407 0.260053 17.7262C0.343751 17.8117 0.443469 17.8799 0.553514 17.9269C0.663558 17.9739 0.781773 17.9987 0.901409 17.9999C1.02104 18.0012 1.13976 17.9789 1.25077 17.9343C1.36179 17.8897 1.46293 17.8236 1.54842 17.7399L5.76408 13.6146C7.09757 14.6935 8.75631 15.2904 10.4714 15.3084H10.5625C12.5473 15.2514 14.4325 14.4254 15.8201 13.0048C17.2077 11.5841 17.9893 9.67985 17.9999 7.69382C18.0105 5.70779 17.2494 3.7953 15.8771 2.35985C14.5047 0.924414 12.6286 0.0782951 10.6444 2.41822e-05ZM10.4896 13.4871C9.33501 13.4744 8.21011 13.1194 7.25726 12.4671C6.30442 11.8148 5.56643 10.8944 5.1367 9.82252C4.70696 8.7506 4.60479 7.57527 4.8431 6.44525C5.08141 5.31524 5.64949 4.28131 6.47548 3.4743C7.30146 2.66729 8.34822 2.12347 9.48331 1.91164C10.6184 1.69982 11.7908 1.82951 12.8522 2.2843C13.9135 2.7391 14.8162 3.49856 15.4459 4.46659C16.0756 5.43462 16.4041 6.56772 16.3897 7.72252C16.3705 9.26913 15.7384 10.7449 14.6321 11.8257C13.5259 12.9066 12.036 13.5041 10.4896 13.4871Z" fill="#72747A"/>
</svg>
