<svg width="24" height="24" viewBox="0 0 24 24" fill="none" xmlns="http://www.w3.org/2000/svg">
                  <path d="M12.0003 16.2752C11.1548 16.2752 10.3282 16.0245 9.62514 15.5547C8.92208 15.085 8.37411 14.4173 8.05053 13.6361C7.72695 12.8549 7.64229 11.9953 7.80725 11.166C7.97221 10.3367 8.37938 9.57488 8.97728 8.97698C9.57519 8.37908 10.337 7.9719 11.1663 7.80694C11.9956 7.64198 12.8552 7.72664 13.6364 8.05023C14.4176 8.37381 15.0853 8.92178 15.555 9.62483C16.0248 10.3279 16.2756 11.1545 16.2756 12C16.2756 13.1339 15.8251 14.2213 15.0234 15.0231C14.2216 15.8248 13.1342 16.2752 12.0003 16.2752V16.2752ZM12.0003 9.10094C11.4269 9.10094 10.8664 9.27097 10.3897 9.58952C9.91293 9.90808 9.54135 10.3609 9.32192 10.8906C9.1025 11.4203 9.04509 12.0032 9.15695 12.5656C9.26881 13.128 9.54492 13.6445 9.95037 14.05C10.3558 14.4554 10.8724 14.7315 11.4347 14.8434C11.9971 14.9553 12.58 14.8978 13.1098 14.6784C13.6395 14.459 14.0923 14.0874 14.4108 13.6107C14.7294 13.1339 14.8994 12.5734 14.8994 12C14.897 11.2319 14.5908 10.4959 14.0476 9.95273C13.5045 9.40957 12.7685 9.10336 12.0003 9.10094V9.10094Z" fill="#686E7C"/>
                  <path d="M14.0833 24H9.77138C9.65543 24.0002 9.54121 23.9718 9.43882 23.9174C9.33642 23.863 9.24898 23.7842 9.18423 23.6881L8.12001 22.0183C8.07107 21.9364 7.99827 21.8715 7.91137 21.8321C7.82446 21.7928 7.7276 21.7809 7.63377 21.7982L5.5879 22.1468C5.47891 22.1665 5.36676 22.1592 5.26122 22.1257C5.15567 22.0921 5.05995 22.0332 4.9824 21.9541L1.93653 18.9082C1.8547 18.827 1.79491 18.7262 1.76281 18.6155C1.73071 18.5047 1.72735 18.3876 1.75304 18.2752L2.17506 16.3303C2.19424 16.2356 2.18536 16.1375 2.1495 16.0478C2.11365 15.9582 2.05238 15.881 1.97322 15.8257L0.294325 14.6789C0.199007 14.6124 0.122091 14.5228 0.0707542 14.4185C0.0194173 14.3142 -0.00466752 14.1987 0.000747148 14.0826V9.77064C-0.00170083 9.65199 0.0265811 9.53472 0.0828454 9.43023C0.13911 9.32574 0.221443 9.23758 0.321848 9.17431L1.97322 8.12844C2.05587 8.07796 2.1212 8.00354 2.16053 7.91504C2.19986 7.82655 2.21132 7.72819 2.19341 7.63302L1.83561 5.58715C1.8182 5.47819 1.82656 5.36667 1.86002 5.26152C1.89347 5.15637 1.9511 5.06052 2.02827 4.98165L5.09249 1.93578C5.17563 1.8539 5.27799 1.79419 5.39019 1.76214C5.50239 1.73008 5.62084 1.72669 5.73469 1.75229L7.67047 2.19266C7.76647 2.21506 7.86701 2.20776 7.95876 2.17171C8.05052 2.13566 8.12915 2.07258 8.18423 1.99082L9.35854 0.293578C9.42158 0.203489 9.50529 0.129819 9.60266 0.0787395C9.70003 0.0276604 9.80822 0.000659887 9.91817 0L14.2393 0C14.3548 0.000683649 14.4683 0.0304583 14.5694 0.0865769C14.6704 0.142696 14.7556 0.223351 14.8173 0.321101L15.8723 1.98165C15.9239 2.06094 15.9971 2.12381 16.0832 2.16283C16.1694 2.20184 16.2649 2.21538 16.3585 2.20183L18.4136 1.83486C18.5226 1.81671 18.6343 1.82471 18.7396 1.85821C18.8448 1.8917 18.9406 1.94974 19.0191 2.02752L22.065 5.07339C22.1468 5.15464 22.2066 5.25539 22.2387 5.36615C22.2708 5.4769 22.2741 5.594 22.2484 5.70642L21.8356 7.67889C21.8154 7.77262 21.8229 7.87019 21.8571 7.95975C21.8913 8.04932 21.9508 8.12704 22.0283 8.18348L23.7072 9.35779C23.7972 9.42083 23.8709 9.50454 23.922 9.60191C23.9731 9.69928 24.0001 9.80747 24.0007 9.91743V14.2385C23.9994 14.3529 23.9704 14.4653 23.916 14.566C23.8617 14.6666 23.7837 14.7526 23.6888 14.8165L22.0191 15.8899C21.9355 15.9394 21.8694 16.0137 21.8299 16.1025C21.7905 16.1912 21.7796 16.2901 21.7989 16.3853L22.1475 18.4128C22.1672 18.5218 22.16 18.634 22.1264 18.7395C22.0928 18.8451 22.0339 18.9408 21.9549 19.0183L18.909 22.0642C18.8277 22.146 18.727 22.2058 18.6162 22.2379C18.5055 22.27 18.3884 22.2734 18.276 22.2477L16.3402 21.8257C16.2465 21.8078 16.1497 21.8163 16.0605 21.8503C15.9714 21.8844 15.8935 21.9425 15.8356 22.0183L14.6796 23.7064C14.6131 23.8017 14.5236 23.8786 14.4193 23.93C14.315 23.9813 14.1994 24.0054 14.0833 24V24ZM10.1475 22.6238H13.7622L14.6796 21.2293C14.8885 20.9281 15.1827 20.6964 15.5245 20.5639C15.8662 20.4315 16.2398 20.4044 16.5971 20.4862L18.1659 20.8257L20.698 18.2936L20.4044 16.6147C20.3377 16.2522 20.3816 15.8781 20.5306 15.541C20.6795 15.204 20.9264 14.9195 21.2393 14.7248L22.5879 13.8624V10.2844L21.2026 9.31192C20.898 9.10365 20.6633 8.80841 20.5291 8.46472C20.3949 8.12102 20.3674 7.74486 20.4503 7.38532L20.7897 5.80734L18.2943 3.26605L16.5879 3.55963C16.2255 3.63299 15.8494 3.59516 15.5089 3.4511C15.1684 3.30703 14.8793 3.06346 14.6796 2.75229L13.854 1.37615H10.2851L9.31267 2.75229C9.10508 3.07049 8.80384 3.3164 8.45052 3.45608C8.09721 3.59577 7.70925 3.62233 7.34019 3.53211L5.79891 3.17431L3.2668 5.70642L3.5512 7.41284C3.62154 7.77153 3.58314 8.14305 3.44093 8.47977C3.29872 8.81649 3.05919 9.10306 2.75304 9.30275L1.41359 10.1468V13.7615L2.75304 14.6789C3.05424 14.8877 3.286 15.182 3.41845 15.5237C3.5509 15.8655 3.57796 16.2391 3.49616 16.5963L3.15671 18.1743L5.70717 20.7339L7.39524 20.4404C7.75766 20.3736 8.13178 20.4176 8.46887 20.5665C8.80596 20.7154 9.0904 20.9624 9.28515 21.2752L10.1475 22.6238Z" fill="#686E7C"/>
                </svg>