<?xml version="1.0" encoding="UTF-8"?>
<svg width="630px" height="629px" viewBox="0 0 630 629" version="1.1" xmlns="http://www.w3.org/2000/svg" xmlns:xlink="http://www.w3.org/1999/xlink">
    <!-- Generator: Sketch 53 (72520) - https://sketchapp.com -->
    <title>ui-pack-4-light</title>
    <desc>Created with Sketch.</desc>
    <g id="Page-1" stroke="none" stroke-width="1" fill="none" fill-rule="evenodd">
        <g id="ui-pack-4-light" fill-rule="nonzero">
            <path d="M138.4,626.5 C248.4,627.2 305.9,628.3 341.1,627.4 C378.3,627.2 432.6,628.8 491.5,628.4 C523,628.2 561.482251,611.922577 590.582251,612.022577 C640.283812,565.144825 586.213102,510.179135 616.1,446.4 C645.986898,382.620865 615.5,318.7 615.2,254.8 C614.9,190.9 566,269.1 540.3,258.3 C488.2,236.4 508.2,167.6 461,101.9 C404.3,23 275.4,-16.8 175.1,8.2 C156.1,12.9 113.7,25.9 74.9,60 C11.6,115.6 3.7,187.1 1.7,209.6 C-3.7,267.9 15.6,312.7 33.9,355.6 C74.7,451.3 118.8,469.8 113.7,516.6 C110.6,544.7 89.7,584.1 2.6,626.1 C68.1,626.2 73.2,623.5 138.4,626.5 Z" id="Path" fill="#EFF9FE"></path>
            <g id="Group" transform="translate(181.000000, 68.000000)" fill="#C6DAEC">
                <path d="M190,456.3 L39.2,456.3 C18.9,456.3 2.4,439.7 2.4,419.5 L2.4,37.3 C2.4,17 19,0.5 39.2,0.5 L190,0.5 C210.3,0.5 226.8,17.1 226.8,37.3 L226.8,419.4 C226.8,439.7 210.3,456.3 190,456.3 Z" id="Path"></path>
                <path d="M193.9,441.8 L35.6,441.8 C25.3,441.8 16.9,433.4 16.9,423.1 L16.9,34.6 C16.9,24.3 25.3,15.9 35.6,15.9 L59.2,15.9 L59.2,21.8 C59.2,27.2 63.6,31.5 68.9,31.5 L114.6,31.5 L160.4,31.5 C165.8,31.5 170.1,27.1 170.1,21.8 L170.1,15.9 L193.7,15.9 C204,15.9 212.4,24.3 212.4,34.6 L212.4,423.1 C212.6,433.4 204.2,441.8 193.9,441.8 Z" id="Path"></path>
                <path d="M3.1,88.8 L0.9,88.8 C0.7,88.8 0.5,88.6 0.5,88.4 L0.5,73.3 C0.5,73.1 0.7,72.9 0.9,72.9 L3.1,72.9 L3.1,88.8 Z" id="Path"></path>
                <path d="M3.1,136.1 L0.9,136.1 C0.7,136.1 0.5,135.9 0.5,135.7 L0.5,106 C0.5,105.8 0.7,105.6 0.9,105.6 L3.1,105.6 L3.1,136.1 Z" id="Path"></path>
                <path d="M3.1,177 L0.9,177 C0.7,177 0.5,176.8 0.5,176.6 L0.5,146.8 C0.5,146.6 0.7,146.4 0.9,146.4 L3.1,146.4 L3.1,177 Z" id="Path"></path>
            </g>
            <path d="M238.1,79.7 L239.8,87.1 C241,92.1 245.4,95.6 250.5,95.6 L339.5,95.6 C344.9,95.6 349.5,91.6 350.4,86.3 L351.4,79.7 L374.3,79.7 C385.4,79.7 394.5,88.7 394.5,99.9 L394.5,493 C394.5,504.1 385.5,513.2 374.3,513.2 L215.2,513.2 C204.1,513.2 195,504.2 195,493 L195,99.8 C195,88.7 204,79.6 215.2,79.6 L238.1,79.6 L238.1,79.7 Z" id="Path" fill="#FFFFFF"></path>
            <path d="M422.4,424.9 C421.9,424.9 421.5,424.6 421.4,424.1 L410.9,375.7 C410.8,375.2 411.1,374.6 411.7,374.5 C412.2,374.4 412.8,374.7 412.9,375.3 L423.4,423.7 C423.5,424.2 423.2,424.8 422.6,424.9 C422.5,424.9 422.4,424.9 422.4,424.9 Z" id="Path" fill="#8EA0B9"></path>
            <path d="M448.3,412.5 C448,412.5 447.7,412.4 447.5,412.1 L418.4,371.1 C418.1,370.6 418.2,370 418.6,369.7 C419.1,369.4 419.7,369.5 420,369.9 L449.1,410.9 C449.4,411.4 449.3,412 448.9,412.3 C448.7,412.4 448.5,412.5 448.3,412.5 Z" id="Path" fill="#8EA0B9"></path>
            <path d="M436.5,417.8 C436.1,417.8 435.8,417.6 435.6,417.2 L414.1,371.9 C413.9,371.4 414.1,370.8 414.6,370.6 C415.1,370.4 415.7,370.6 415.9,371.1 L437.4,416.4 C437.6,416.9 437.4,417.5 436.9,417.7 C436.8,417.8 436.7,417.8 436.5,417.8 Z" id="Path" fill="#8EA0B9"></path>
            <path d="M190.5,351.7 L201.1,322.3 C201.9,320 204.4,318.7 206.8,319.4 L224.3,324.3 C226.9,325 228.3,327.8 227.5,330.3 L216.6,362.9 C215.8,365.3 213.3,366.6 210.9,365.9 L192.5,360.7 C189.8,359.9 188.4,357 189.5,354.4 L190.5,351.7 Z" id="Path" fill="#11A1DC"></path>
            <path d="M194.6,363.4 C194.6,363.4 193.5,357.7 193.7,356.6 C193.9,355.5 197.3,352.4 198.4,352 C199.5,351.6 202.9,350.5 202.9,351 C202.9,351.5 201.3,352.7 201,352.9 C200.8,353 196.8,357.4 194.6,363.4 Z" id="Path" fill="#CA927B"></path>
            <polygon id="Path" fill="#EBE9E9" points="195.1 110.1 388.6 110.1 447.1 214.6 142.5 214.6"></polygon>
            <polygon id="Path" fill="#EBE9E9" points="185.9 214.6 217.1 110.1 195.1 110.1 142.5 214.6"></polygon>
            <polygon id="Path" fill="#ECE9E7" points="224.5 110.1 264.4 110.1 264.4 214.6 203.5 214.6"></polygon>
            <path d="M142.5,214.6 C142.5,226.9 156.1,236.9 172.8,236.9 C189.6,236.9 203.1,226.9 203.1,214.6 L142.5,214.6 Z" id="Path" fill="#E84137"></path>
            <path d="M203.5,214.6 C203.5,226.9 217.1,236.9 233.8,236.9 C250.5,236.9 264.1,226.9 264.1,214.6 L203.5,214.6 Z" id="Path" fill="#DDDBDA"></path>
            <path d="M264.4,214.6 C264.4,226.9 278,236.9 294.7,236.9 C311.4,236.9 325,226.9 325,214.6 L264.4,214.6 Z" id="Path" fill="#E84137"></path>
            <path d="M325.4,214.6 C325.4,226.9 339,236.9 355.7,236.9 C372.4,236.9 386,226.9 386,214.6 L325.4,214.6 Z" id="Path" fill="#DDDBDA"></path>
            <path d="M386.4,214.6 C386.4,226.9 400,236.9 416.7,236.9 C433.5,236.9 447,226.9 447,214.6 L386.4,214.6 Z" id="Path" fill="#E84137"></path>
            <polygon id="Path" fill="#F05838" points="203.5 214.6 224.5 110.1 195.1 110.1 142.5 214.6"></polygon>
            <polygon id="Path" fill="#F05838" points="386.1 214.6 365.1 110.1 394.5 110.1 447.1 214.6"></polygon>
            <polygon id="Path" fill="#ECE9E7" points="365.1 110.1 325.1 110.1 325.1 214.6 386.1 214.6"></polygon>
            <rect id="Rectangle" fill="#F05838" x="264.4" y="110.1" width="60.7" height="104.5"></rect>
            <path d="M336.5,359.9 C342.5,377.4 322,370.1 316.5,369.3 C315.2,369.1 312.6,368.8 311.4,369.3 C282.9,381.8 260.5,336 257.6,317.5 C254.7,299.1 255.9,282 267.4,270.8 C296.6,242.5 326.9,260.6 336.5,281.7 C340.3,290.1 342.2,299.3 341.6,311.3 C340.6,329.7 332.1,347.1 336.5,359.9 Z" id="Path" fill="#5F47A4"></path>
            <path d="M335.6,300.7 C335.6,321.7 318.6,345.6 297.6,345.6 C276.6,345.6 260.5,320.8 260.5,299.8 C260.5,278.8 276.6,262.6 297.6,262.6 C318.6,262.7 335.6,279.7 335.6,300.7 Z" id="Path" fill="#FCC59C"></path>
            <path d="M282,336 C281.2,336 280.4,335.9 279.8,335.8 C279.3,335.7 278.9,335.2 279,334.7 C279.1,334.2 279.6,333.8 280.1,333.9 C280.5,334 290.1,335.3 292,327.4 C292.1,326.9 292.7,326.5 293.2,326.7 C293.7,326.8 294.1,327.4 293.9,327.9 C292.3,334.3 286.3,336 282,336 Z" id="Path" fill="#D58582"></path>
            <path d="M354.3,365.1 C349.8,358.8 325.1,354.5 325.1,354.5 L325.1,354.5 C321.3,348.6 320.6,341 320.8,333.6 L291.2,339.6 C291.2,339.6 296.2,345.6 296.1,354.7 L262.2,364.1 C262.2,364.1 248.8,396.6 244.4,418 C237.8,406.3 230.2,394.9 227.7,389.7 C222.8,379.6 220.5,369.9 220.5,369.9 C219.2,365.2 212.2,364.7 210.2,359.4 C208.2,354.1 205.2,352.8 200.5,353.9 C195.8,355 194.8,360.4 194.2,366.8 C193.6,373.2 205.8,378.4 212.9,384.7 C219.9,391 218.8,414.1 224.6,434.5 C230.4,454.9 240.7,458.5 244.9,459.5 C245.9,459.7 246.9,459.9 247.8,459.8 L247.8,459.8 C247.8,459.8 247.9,459.8 247.9,459.7 C249.5,459.5 253.7,456.8 254.9,454.4 C263.3,439.6 271.6,399.9 273.5,392.5 C277.8,398.9 292.9,405.8 303.6,406 C312.8,406.2 322.7,403.5 332.5,397.4 L347.1,386 C347.1,386.2 357.3,369.3 354.3,365.1 Z" id="Path" fill="#FCC59C"></path>
            <path d="M311.4,342.4 C306.8,342.4 303.3,336.6 303.3,329.1 C303.3,321.6 306.9,315.8 311.4,315.8 C316,315.8 319.5,321.6 319.5,329.1 C319.6,336.6 316,342.4 311.4,342.4 Z M311.4,317.8 C308.1,317.8 305.3,323 305.3,329.1 C305.3,335.2 308.1,340.4 311.4,340.4 C314.7,340.4 317.5,335.2 317.5,329.1 C317.6,323 314.8,317.8 311.4,317.8 Z" id="Shape" fill="#389E68"></path>
            <path d="M360.5,372.3 C360.5,372.3 367.9,393.7 372.3,415.2 C378.9,403.5 386.5,392.1 389,386.9 C393.9,376.8 396.2,367.1 396.2,367.1 C397.5,362.4 404.5,361.9 406.5,356.6 C408.5,351.3 411.5,350 416.2,351.1 C420.9,352.2 421.9,357.6 422.5,364 C423.1,370.4 410.9,375.6 403.8,381.9 C396.7,388.2 397.9,411.3 392.1,431.7 C386.3,452.1 376,455.7 371.8,456.7 C370.8,456.9 369.8,457.1 368.9,457 L368.9,457 C368.9,457 368.8,457 368.8,456.9 C367.2,456.7 363,454 361.8,451.6 C353.4,436.8 345.1,397.1 343.2,389.7 C343.2,389.7 347.2,364.5 358.6,372.2" id="Path" fill="#FCC59C"></path>
            <path d="M343.2,430.1 C343.6,421.5 346.6,411.5 346.6,411.5 C346.6,411.5 367.2,412.4 374.5,406.4 C374.5,406.4 363.4,367.7 357.5,363.8 C346.9,356.7 343.3,357.9 335.2,356.9 C335.2,356.9 336.1,399.4 299.7,396.8 C278.8,395.3 283.4,358.2 283.4,358.2 C283.4,358.2 264.4,359.2 260.5,366.1 C256.6,373 248.3,401.4 246.5,409.7 C249.8,415.7 264.9,420 268.2,414.6 C268.2,414.6 266.7,421.6 269.9,428.5 C272.8,434.8 276.5,435.6 276.5,445.1 L276.2,445.2 C274.2,465.3 262.4,500.7 262.4,512.5 L262.4,513.3 L365,513.3 C365,513.3 364,496.4 355.2,477.8 C355.2,477.6 342.1,453.9 343.2,430.1 Z" id="Path" fill="#46AD68"></path>
            <path d="M275.2,269.2 C275.2,269.2 282.8,315.7 324.9,339.7 C324.9,339.7 329.2,332 332.6,319.1 C334.4,312.4 335.9,304.4 336.4,295.4 C338.5,260.5 280,235 258.7,288.4 C258.7,288.5 266.1,274.8 275.2,269.2 Z" id="Path" fill="#5F47A4"></path>
            <path d="M281.8,266.3 C281.8,266.3 288.6,323.7 331.2,324.000223 C331.2,324.000223 291.9,324.6 288.9,263.6 L281.8,266.3 Z" id="Path" fill="#5F5AD3"></path>
            <circle id="Oval" fill="#4D4D4D" cx="266" cy="309.4" r="12"></circle>
            <circle id="Oval" fill="#4D4D4D" cx="290.2" cy="309.4" r="12"></circle>
            <path d="M244.4,417.9 C244.4,417.9 252.2,427.3 254.8,441.3 C254.8,441.3 257,448.2 255.9,452.5 C255.9,452.5 267,426.1 268.1,414.5 C268.1,414.5 262.4,429 244.4,417.9 Z" id="Path" fill="#EFBB97"></path>
            <path d="M372.3,415.2 C372.3,415.2 364.5,424.6 361.9,438.6 C361.9,438.6 359.4,445.3 360.6,449.5 C360.6,449.5 351,428.7 348.6,411.8 C348.6,411.8 354.3,426.3 372.3,415.2 Z" id="Path" fill="#EFBB97"></path>
            <path d="M212.8,362.9 C212.8,362.9 210.7,364 209.1,363.7 C207.5,363.5 205.1,360.9 205.1,360.9 C205.1,360.9 206.3,364.7 207.7,365.5 C209.1,366.3 214.2,366.5 215.9,366.2 C216.8,366.1 217.1,365.9 217.1,365.9 L212.8,362.9 Z" id="Path" fill="#CA927B"></path>
            <rect id="Rectangle" fill="#2AC5F4" transform="translate(202.477460, 335.982130) rotate(-70.292987) translate(-202.477460, -335.982130) " x="192.227779" y="334.482177" width="20.4993624" height="2.9999067"></rect>
            <rect id="Rectangle" fill="#C7EAFB" transform="translate(215.793360, 342.565730) rotate(-70.292987) translate(-215.793360, -342.565730) " x="202.043788" y="341.065777" width="27.4991447" height="2.9999067"></rect>
            <path d="M406.1,427.2 C405.6,427.2 405.1,426.8 405.1,426.2 L403.5,359.8 C403.5,359.2 403.9,358.8 404.5,358.8 C405,358.8 405.5,359.2 405.5,359.8 L407.1,426.2 C407.1,426.8 406.7,427.2 406.1,427.2 C406.1,427.2 406.1,427.2 406.1,427.2 Z" id="Path" fill="#8EA0B9"></path>
            <polygon id="Path" fill="#8EA0B9" points="398.9 423.9 429.5 423.2 441.7 550.8 413.5 542.4 389.5 550.8"></polygon>
            <polygon id="Path" fill="#5D5E7E" points="427 411.7 456.3 401.8 497.3 523.2 467.9 521.5 446.5 535.1"></polygon>
            <path d="M343.2,426.3 C343.2,426.3 333.4,438 315.7,431.2 C308.5,428.4 304.9,428.8 289.5,432.9 C279.3,435.6 272.2,431.5 270.6,429.8 C271.7,445 271.7,468.1 269.4,478.7 C269.4,478.7 280,450.9 301,449.8 C322,448.6 350.1,466.2 350.1,466.2 C350.1,466.2 341,443.6 343.2,426.3 Z" id="Path" fill="#3B9E68"></path>
            <polygon id="Path" fill="#50516E" points="467.9 521.5 439.9 407.3 456.3 401.8 497.3 523.2"></polygon>
            <polygon id="Path" fill="#77869B" points="415.6 423.9 413.5 542.4 441.7 550.8 429.5 423.2"></polygon>
            <rect id="Rectangle" fill="#4D4D4D" transform="translate(278.170521, 309.209972) rotate(-1.202787) translate(-278.170521, -309.209972) " x="269.620347" y="308.209951" width="17.1003478" height="2.00004068"></rect>
            <circle id="Oval" fill="#8EA0B9" opacity="0.5" cx="326.7" cy="85.9" r="4.7"></circle>
            <circle id="Oval" fill="#8EA0B9" opacity="0.5" cx="335.3" cy="85.9" r="1.8"></circle>
        </g>
    </g>
</svg>