<?xml version="1.0" encoding="UTF-8"?>
<svg width="793px" height="566px" viewBox="0 0 793 566" version="1.1" xmlns="http://www.w3.org/2000/svg" xmlns:xlink="http://www.w3.org/1999/xlink">
    <!-- Generator: Sketch 53 (72520) - https://sketchapp.com -->
    <title>ui-pack-2-light</title>
    <desc>Created with Sketch.</desc>
    <g id="Page-1" stroke="none" stroke-width="1" fill="none" fill-rule="evenodd">
        <g id="ui-pack-2-light" fill-rule="nonzero">
            <path d="M293.9,563 C215.2,498.5 111.3,467.6 47.4,376.5 C-111.6,149.8 167.8,-103.7 392.4,45.6 C538.1,142.4 625.7,73.3 688.1,21.5 C711.5,2 775,21.5 775,60.8 C757.066667,169.107459 757.066667,248.174126 775,298 C789.830203,339.204155 756.060351,400.622791 786.900304,472.830028 C796.953453,496.368005 792.986685,526.157996 775,562.2 L293.9,563 Z" id="Path" fill="#EFF9FE"></path>
            <ellipse id="Oval" fill="#D1E6F7" cx="504.7" cy="562.2" rx="173.7" ry="3.8"></ellipse>
            <path d="M459.5,541.9 L460,546.9 L474,553.1 L475,553.6 C476,554.3 475.6,555.9 474.3,556 L458.5,557.2 C453.4,557.6 448.8,554 447.9,548.9 L447.9,548.9 L445.8,542.1 L459.5,541.9 Z" id="Path" fill="#FAB074"></path>
            <path d="M473.9,553.1 C473.9,553.1 484,557.2 485,559 C486.1,560.9 484,562.7 481,562.8 C471.6,563.2 452.5,563.1 448,561.3 C442.9,559.2 447.6,548.4 447.6,548.4 C447.9,549.5 448.4,550.6 449,551.6 C450.1,553.4 451.6,554.6 453.6,555.2 C455.4,555.8 457.3,556.1 459.1,556.2 C461.8,556.3 464.4,556.3 467.1,556.1 C468.9,556 470.8,556 472.6,555.4 C473.2,555.2 474,554.8 474.1,554.1 C474.3,553.7 474.2,553.4 473.9,553.1 Z" id="Path" fill="#5D5E7E"></path>
            <path d="M360.2,542.1 L359.7,547 L345.7,553.2 L344.7,553.7 C343.7,554.4 344.1,556 345.4,556.1 L361.2,557.3 C366.3,557.7 370.9,554.1 371.8,549 L371.8,549 L373.9,542.1 L360.2,542.1 Z" id="Path" fill="#FAB074"></path>
            <path d="M345.7,553.1 C345.7,553.1 335.6,557.2 334.6,559 C333.5,560.9 335.6,562.7 338.6,562.8 C348,563.2 367.1,563.1 371.6,561.3 C376.7,559.2 372,548.4 372,548.4 C371.7,549.5 371.2,550.6 370.6,551.6 C369.5,553.4 368,554.6 366,555.2 C364.2,555.8 362.3,556.1 360.5,556.2 C357.8,556.3 355.2,556.3 352.5,556.1 C350.7,556 348.8,556 347,555.4 C346.4,555.2 345.6,554.8 345.5,554.1 C345.3,553.7 345.5,553.4 345.7,553.1 Z" id="Path" fill="#5D5E7E"></path>
            <path d="M361.4,335.8 C363.5,395 359.6,542.2 359.6,542.2 L373.9,542.1 C373.9,542.1 393.9,460.2 397.9,404.2 C401.2,382.9 408.9,319 408.9,319 C411.2,333.2 411,352.2 419,403.2 C422.8,445.5 445.8,542.3 445.8,542.3 L460.4,542 C460.4,542 454,419.6 454.4,403.4 C455,380.7 460.7,316.3 457.3,290.2 C455.9,279.6 450.7,269.3 449.8,266.2 C449.8,266.2 430.3,265.7 403.8,266.8 C395.9,267.1 374.6,266.8 374.6,266.8 C374.6,266.8 359.6,283.3 361.4,335.8 Z" id="Path" fill="#5D5E7E"></path>
            <path d="M454.5,288.7 C454.5,288.7 399.1,294.1 393.9,342.1 C388.7,390.1 361.3,457.4 361.3,457.4 C361.3,457.4 362,327.2 368.2,308.6 C374.4,290.1 393.9,292 393.9,292 C393.9,292 435.4,292.3 454.5,288.7 Z" id="Path" fill="#565775"></path>
            <path d="M672.2,298 L499.8,298 C498.1,298 496.7,296.6 496.7,294.9 L496.7,294.9 C496.7,293.2 498.1,291.8 499.8,291.8 L672.2,291.8 C673.9,291.8 675.3,293.2 675.3,294.9 L675.3,294.9 C675.3,296.6 673.9,298 672.2,298 Z" id="Path" fill="#D1E6F7"></path>
            <rect id="Rectangle" fill="#D1E6F7" x="582.8" y="291.9" width="9.6" height="269.7"></rect>
            <path d="M631.6,288.9 L568.8,288.9 L589.4,233.6 C590.6,230.3 593.7,228.2 597.2,228.2 L647.7,228.2 C650.8,228.2 653,231.3 651.9,234.3 L631.6,288.9 Z" id="Path" fill="#C6DAEC"></path>
            <path d="M627.2,291.9 L522.2,291.9 C520.8,291.9 519.7,290.8 519.7,289.4 L519.7,289.4 C519.7,288 520.8,286.9 522.2,286.9 L632.1,286.9 L632.1,286.9 C632.1,289.7 629.9,291.9 627.2,291.9 Z" id="Path" fill="#C6DAEC"></path>
            <path d="M608.5,262.7 C606.9,259.8 610.9,261.4 613.8,259.8 C616.7,258.2 617.5,253.9 619.1,256.9 C620.7,259.9 619.7,263.5 616.7,265.2 C613.8,266.7 610.1,265.6 608.5,262.7 Z" id="Path" fill="#FFFFFF"></path>
            <path d="M445.9,134.4 C441.3,130.5 439.8,121.6 439.5,119.4 C439.1,109 435.5,100 432.2,92.7 C423.8,74.4 397.5,58.6 372.2,83.2 C362.2,92.9 357.9,109.9 355.8,126 C353.9,129.8 350.4,134.7 344.2,139.6 C328,152.2 334.1,172.1 345.1,175.8 C350.4,177.6 358.4,178.2 362.6,177.5 C372.6,175.7 384.3,174.1 396.7,165.7 L415,168.8 C415,168.8 448.1,180.5 458,167.9 C470.5,151.7 451.2,138.9 445.9,134.4 Z" id="Path" fill="#674B52"></path>
            <path d="M438.7,228 C438.7,228 442.5,250 448.6,262.8 C456.2,279 457.1,288.7 457.1,288.7 C442.2,292.1 421.9,294.2 402.1,292.8 C398.4,292.5 394.8,292.1 391.3,291.7 C391.3,281.5 391.3,271.2 391.3,261 L438.7,228 Z" id="Path" fill="#FBAD26"></path>
            <polygon id="Path" fill="#E7A023" points="446.4 256.7 405 293 393.9 292 393.9 285.2 446.4 253.6"></polygon>
            <path d="M465.3,179.7 C464.5,171.9 465.3,173 460.9,168 C456.4,163 422.4,155.9 422.4,155.9 L422.4,155.9 C419.1,150.7 418.5,144.1 418.7,137.7 L393,142.9 C393,142.9 397.3,148.1 397.3,156 L362.4,165.7 C362.4,165.7 346.9,199.1 344.6,213.6 C342.4,228.1 311.4,165.7 311.4,165.7 C311.4,165.7 304.7,158.9 297.5,167.2 C297.5,167.2 329,255.3 343,255.9 C357,256.5 380.4,195.8 382.3,188.5 C386.1,194.1 394.4,200.6 403.7,200.8 C411.7,201 420.3,198.6 428.8,193.4 L441.5,183.5 C441.5,183.5 443.7,216.2 433.5,234.1 C423.3,252 394,272.8 394,272.8 L394,286.2 C394,286.2 453.5,256.1 456.2,244.9 C459,233.6 466,187.5 465.3,179.7 Z" id="Path" fill="#FCC59C"></path>
            <path d="M374.5,253.6 C376,233.1 370.4,230.2 368.5,223.9 C366.6,217.6 369.6,211.2 369.6,211.2 C365.1,211.8 348.1,210.9 345.2,205.6 C346.8,198.3 354.7,175.1 358.1,169.1 C361.4,163.1 386.1,158.9 386.1,158.9 C386.1,158.9 384.5,182.5 401.6,188.9 C418.7,195.3 431.1,157.8 431.1,157.8 C438.2,158.7 450.7,160.5 460.1,166.3 C469,171.8 465.2,200.8 465.2,200.8 C458.9,206 441,205.3 441,205.3 C441,205.3 441.4,214 436.4,233.9 C432.5,238 423.8,247.1 416.9,253.6 L374.5,253.6 Z" id="Path" fill="#FBAD26"></path>
            <path d="M441.1,191.2 C441.1,191.2 438.1,216 430,223.1 C422.7,229.7 417.2,228.6 405.1,229.2 C397.4,229.6 393.2,231.4 393.2,231.4 L392.8,266.8 C392.8,266.8 391.6,272.7 393.1,273.4 C403.9,265.7 437.7,236.8 437.7,236.8 C437.7,236.8 442.2,202.9 441.1,191.2 Z" id="Path" fill="#E7A023"></path>
            <path d="M431.5,109.1 C431.5,127.3 416.7,148.1 398.5,148.1 C380.3,148.1 366.3,126.6 366.3,108.3 C366.3,90 380.3,76 398.5,76 C416.7,76 431.5,90.9 431.5,109.1 Z" id="Path" fill="#FCC59C"></path>
            <path d="M379,81.8 C379,81.8 385.6,122.2 422.2,143.1 C422.2,143.1 430.8,127.6 432.2,104.6 C434,74.3 383.2,52.1 364.7,98.6 C364.7,98.5 371.1,86.6 379,81.8 Z" id="Path" fill="#674B52"></path>
            <path d="M368.6,119.3 C362.9,119.3 358.3,114.7 358.3,109 C358.3,103.3 362.9,98.7 368.6,98.7 C374.3,98.7 378.9,103.3 378.9,109 C378.9,114.7 374.3,119.3 368.6,119.3 Z M368.6,100.8 C364,100.8 360.3,104.5 360.3,109.1 C360.3,113.7 364,117.4 368.6,117.4 C373.2,117.4 376.9,113.7 376.9,109.1 C376.9,104.5 373.2,100.8 368.6,100.8 Z" id="Shape" fill="#FFFFFF"></path>
            <path d="M389,139.6 C388.3,139.6 387.6,139.5 387,139.5 C386.5,139.4 386.1,138.9 386.2,138.4 C386.3,137.9 386.8,137.5 387.3,137.6 C387.6,137.7 395.9,138.8 397.5,132.1 C397.6,131.6 398.2,131.2 398.7,131.4 C399.2,131.5 399.6,132.1 399.4,132.6 C398,138.1 392.7,139.6 389,139.6 Z" id="Path" fill="#D58582"></path>
            <rect id="Rectangle" fill="#FFFFFF" x="181.7" y="165.6" width="212.2" height="235.5"></rect>
            <rect id="Rectangle" fill="#C6DAEC" x="203.1" y="213.7" width="171.3" height="76.4"></rect>
            <rect id="Rectangle" fill="#C6DAEC" x="203.1" y="304.5" width="51.2" height="47.1"></rect>
            <rect id="Rectangle" fill="#C6DAEC" x="263.2" y="304.5" width="51.2" height="47.1"></rect>
            <rect id="Rectangle" fill="#C6DAEC" x="323.2" y="304.5" width="51.2" height="47.1"></rect>
            <g id="Group" transform="translate(203.000000, 360.000000)" fill="#C6DAEC">
                <rect id="Rectangle" x="0.1" y="0.9" width="51.2" height="4.1"></rect>
                <rect id="Rectangle" x="60.2" y="0.9" width="51.2" height="4.1"></rect>
                <rect id="Rectangle" x="120.2" y="0.9" width="51.2" height="4.1"></rect>
            </g>
            <rect id="Rectangle" fill="#C6DAEC" x="203.1" y="188.3" width="171.3" height="14.2"></rect>
            <ellipse id="Oval" fill="#D1E6F7" cx="684" cy="561.5" rx="64.1" ry="2.5"></ellipse>
            <path d="M696.8,494.9 C696.8,494.9 711.6,505.8 693,516 C674.4,526.2 653.8,517.2 662.6,501.4 C671.4,485.6 663.2,488.7 658.2,478.9 C653.2,469.1 663.2,468.7 664.3,451.6 C665.4,434.5 691.2,421.2 697,430.1 C702.8,438.9 685.9,443 688.9,452.2 C692,461.4 705.2,472 696.6,481.8 C688,491.7 696.8,494.9 696.8,494.9 Z" id="Path" fill="#80C785"></path>
            <path d="M677.9,529 C677.7,529 677.5,528.9 677.4,528.8 C677.1,528.5 677.1,528 677.4,527.7 C677.4,527.7 678.7,526.3 679.5,523 C680.3,519.9 680.9,514.4 679.3,505.9 C677.9,498.3 677.7,492.8 677.5,488 C677.3,482 677,476.7 674.6,468.8 C672.3,461.3 672.2,455.6 674.4,450.3 C676.5,445.3 680.5,440.6 688.1,434.6 C688.4,434.3 688.9,434.4 689.2,434.7 C689.5,435 689.4,435.5 689.1,435.8 C675,447 672,454.6 676.2,468.2 C678.7,476.3 678.9,481.6 679.1,487.8 C679.3,492.5 679.5,497.9 680.9,505.5 C684.1,522.7 678.8,528.5 678.5,528.7 C678.3,528.9 678.1,529 677.9,529 Z" id="Path" fill="#63A177"></path>
            <path d="M676,447.6 C675.8,447.6 675.6,447.5 675.5,447.4 C675.5,447.4 674.8,446.4 674.6,444.9 C674.4,443.5 674.5,441.4 676.3,438.8 C676.5,438.5 676.8,438.5 677.1,438.6 C677.4,438.8 677.4,439.1 677.3,439.4 C674.5,443.6 676.4,446.5 676.5,446.6 C676.7,446.9 676.6,447.2 676.4,447.4 C676.2,447.5 676.1,447.6 676,447.6 Z" id="Path" fill="#63A177"></path>
            <path d="M676.9,477.7 C676.7,477.7 676.5,477.6 676.4,477.4 C676.2,477.1 676.4,476.8 676.6,476.6 C676.6,476.6 678.6,475.5 680.5,473.5 C683.1,470.7 684.4,467.6 684.5,464.1 C684.5,463.8 684.8,463.5 685.1,463.5 C685.4,463.5 685.7,463.8 685.7,464.1 C685.6,467.8 684.1,471.3 681.3,474.3 C679.2,476.5 677.2,477.6 677.1,477.7 C677.1,477.7 677,477.7 676.9,477.7 Z" id="Path" fill="#63A177"></path>
            <path d="M674.7,457.4 C674.2,457.4 673.9,457.4 673.8,457.4 C673.5,457.4 673.2,457.1 673.3,456.7 C673.3,456.4 673.6,456.1 674,456.2 L674,456.2 C674,456.2 675.3,456.3 676.9,456 C679,455.6 680.7,454.5 681.9,452.9 C682.1,452.6 682.5,452.6 682.7,452.8 C683,453 683,453.4 682.8,453.6 C681.4,455.4 679.5,456.6 677.1,457.1 C676.1,457.3 675.3,457.4 674.7,457.4 Z" id="Path" fill="#63A177"></path>
            <path d="M678.6,489 C678.5,489 678.5,489 678.4,489 C678.3,489 676,488 673.6,485.9 C671.4,483.9 668.6,480.4 668,475.2 C668,474.9 668.2,474.6 668.5,474.6 C668.8,474.6 669.1,474.8 669.1,475.1 C669.5,479 671.2,482.3 674.3,485 C676.6,487 678.7,487.9 678.8,487.9 C679.1,488 679.3,488.4 679.1,488.7 C679,488.8 678.8,489 678.6,489 Z" id="Path" fill="#63A177"></path>
            <path d="M680.5,502.9 C680.2,502.9 679.9,502.7 679.9,502.3 C679.9,502 680.1,501.7 680.5,501.7 C680.5,501.7 682.8,501.6 685.1,500.3 C688.2,498.7 690,496 690.5,492.4 C690.5,492.1 690.8,491.9 691.2,491.9 C691.5,491.9 691.7,492.2 691.7,492.6 C691,497.6 688,500.2 685.6,501.4 C683,502.8 680.7,502.9 680.5,502.9 C680.6,502.9 680.5,502.9 680.5,502.9 Z" id="Path" fill="#63A177"></path>
            <path d="M678.5,512.8 C677.4,512.8 676,512.7 674.6,512.3 C671.7,511.6 667.9,509.5 666.7,504.2 C666.6,503.9 666.8,503.6 667.1,503.5 C667.4,503.4 667.7,503.6 667.8,503.9 C668.7,507.7 671.1,510.2 674.9,511.1 C677.8,511.8 680.4,511.4 680.5,511.4 C680.8,511.3 681.1,511.6 681.2,511.9 C681.3,512.2 681,512.5 680.7,512.6 C680.6,512.7 679.7,512.8 678.5,512.8 Z" id="Path" fill="#63A177"></path>
            <path d="M658.1,527.2 L701,527.2 C702.8,527.2 704.2,528.9 703.8,530.7 L697.3,559.9 C697,561.2 695.8,562.2 694.5,562.2 L665.2,562.2 C663.9,562.2 662.7,561.3 662.4,560 L655.3,530.8 C654.9,529 656.3,527.2 658.1,527.2 Z" id="Path" fill="#D1E6F7"></path>
            <g id="Group" transform="translate(44.000000, 25.000000)">
                <path d="M194.2,122.7 L50.5,122.7 C44.8,122.7 40.2,118.1 40.2,112.4 C40.2,106.7 44.8,102.1 50.5,102.1 L194.2,102.1 C199.9,102.1 204.5,106.7 204.5,112.4 C204.6,118 199.9,122.7 194.2,122.7 Z" id="Path" fill="#DEEAF7"></path>
                <path d="M194.2,87.8 L42.2,87.8 C36.5,87.8 31.9,83.2 31.9,77.5 C31.9,71.8 36.5,67.2 42.2,67.2 L194.2,67.2 C199.9,67.2 204.5,71.8 204.5,77.5 C204.5,83.2 199.9,87.8 194.2,87.8 Z" id="Path" fill="#DEEAF7"></path>
                <path d="M194.2,84.1 L42.2,84.1 C36.5,84.1 31.9,79.5 31.9,73.8 C31.9,68.1 36.5,63.5 42.2,63.5 L194.2,63.5 C199.9,63.5 204.5,68.1 204.5,73.8 C204.6,79.5 199.9,84.1 194.2,84.1 Z" id="Path" fill="#FFFFFF"></path>
                <path d="M194.2,119.4 L50.5,119.4 C44.8,119.4 40.2,114.8 40.2,109.1 C40.2,103.4 44.8,98.8 50.5,98.8 L194.2,98.8 C199.9,98.8 204.5,103.4 204.5,109.1 C204.5,114.8 199.9,119.4 194.2,119.4 Z" id="Path" fill="#FFFFFF"></path>
                <path d="M23.6,38.7 C22.6,38.7 21.5,38.4 20.6,37.8 L3,26.9 C1.4,25.9 0.4,24.2 0.3,22.3 C0.2,20.4 1.1,18.6 2.6,17.5 L20.2,4.3 C22.7,2.4 26.3,2.9 28.2,5.4 C30.1,7.9 29.6,11.5 27.1,13.4 L16.2,21.5 L26.6,28 C29.3,29.7 30.1,33.2 28.5,35.9 C27.4,37.7 25.6,38.7 23.6,38.7 Z" id="Path" fill="#DEEAF7"></path>
                <path d="M40.2,38.7 C38.5,38.7 36.7,37.9 35.6,36.4 C33.7,33.9 34.2,30.3 36.7,28.4 L47.6,20.3 L37.2,13.8 C34.5,12.1 33.7,8.6 35.3,5.9 C37,3.2 40.5,2.4 43.2,4 L60.8,14.9 C62.4,15.9 63.4,17.6 63.5,19.5 C63.6,21.4 62.7,23.2 61.2,24.3 L43.6,37.5 C42.6,38.3 41.4,38.7 40.2,38.7 Z" id="Path" fill="#DEEAF7"></path>
                <path d="M23.6,35.8 C22.6,35.8 21.5,35.5 20.6,34.9 L3,24 C1.4,23 0.4,21.3 0.3,19.4 C0.2,17.5 1.1,15.7 2.6,14.6 L20.2,1.4 C22.7,-0.5 26.3,0 28.2,2.5 C30.1,5 29.6,8.6 27.1,10.5 L16.2,18.6 L26.6,25.1 C29.3,26.8 30.1,30.3 28.5,33 C27.4,34.9 25.6,35.8 23.6,35.8 Z" id="Path" fill="#FFFFFF"></path>
                <path d="M40.2,35.8 C38.5,35.8 36.7,35 35.6,33.5 C33.7,31 34.2,27.4 36.7,25.5 L47.6,17.4 L37.2,10.9 C34.5,9.2 33.7,5.7 35.3,3 C37,0.3 40.5,-0.5 43.2,1.1 L60.8,12 C62.4,13 63.4,14.7 63.5,16.6 C63.6,18.5 62.7,20.3 61.2,21.4 L43.6,34.6 C42.6,35.4 41.4,35.8 40.2,35.8 Z" id="Path" fill="#FFFFFF"></path>
                <path d="M183.4,458.1 L39.7,458.1 C34,458.1 29.4,453.5 29.4,447.8 C29.4,442.1 34,437.5 39.7,437.5 L183.4,437.5 C189.1,437.5 193.7,442.1 193.7,447.8 C193.7,453.4 189.1,458.1 183.4,458.1 Z" id="Path" fill="#DEEAF7"></path>
                <path d="M183.4,423.3 L31.4,423.3 C25.7,423.3 21.1,418.7 21.1,413 C21.1,407.3 25.7,402.7 31.4,402.7 L183.4,402.7 C189.1,402.7 193.7,407.3 193.7,413 C193.7,418.6 189.1,423.3 183.4,423.3 Z" id="Path" fill="#DEEAF7"></path>
                <path d="M183.4,419.5 L31.4,419.5 C25.7,419.5 21.1,414.9 21.1,409.2 C21.1,403.5 25.7,398.9 31.4,398.9 L183.4,398.9 C189.1,398.9 193.7,403.5 193.7,409.2 C193.7,414.9 189.1,419.5 183.4,419.5 Z" id="Path" fill="#FFFFFF"></path>
                <path d="M183.4,454.8 L39.7,454.8 C34,454.8 29.4,450.2 29.4,444.5 C29.4,438.8 34,434.2 39.7,434.2 L183.4,434.2 C189.1,434.2 193.7,438.8 193.7,444.5 C193.7,450.2 189.1,454.8 183.4,454.8 Z" id="Path" fill="#FFFFFF"></path>
                <path d="M183.8,507.9 C182.8,507.9 181.7,507.6 180.8,507 L163.2,496.1 C161.6,495.1 160.6,493.4 160.5,491.5 C160.4,489.6 161.3,487.8 162.8,486.7 L180.4,473.5 C182.9,471.6 186.5,472.1 188.4,474.6 C190.3,477.1 189.8,480.7 187.3,482.6 L176.4,490.7 L186.8,497.2 C189.5,498.9 190.3,502.4 188.7,505.1 C187.6,506.9 185.7,507.9 183.8,507.9 Z" id="Path" fill="#DEEAF7"></path>
                <path d="M200.4,507.9 C198.7,507.9 196.9,507.1 195.8,505.6 C193.9,503.1 194.4,499.5 196.9,497.6 L207.8,489.5 L197.4,483 C194.7,481.3 193.9,477.8 195.5,475.1 C197.2,472.4 200.7,471.6 203.4,473.2 L221,484.1 C222.6,485.1 223.6,486.8 223.7,488.7 C223.8,490.6 222.9,492.4 221.4,493.5 L203.8,506.7 C202.8,507.5 201.6,507.9 200.4,507.9 Z" id="Path" fill="#DEEAF7"></path>
                <path d="M183.8,505 C182.8,505 181.7,504.7 180.8,504.1 L163.2,493.2 C161.6,492.2 160.6,490.5 160.5,488.6 C160.4,486.7 161.3,484.9 162.8,483.8 L180.4,470.6 C182.9,468.7 186.5,469.2 188.4,471.7 C190.3,474.2 189.8,477.8 187.3,479.7 L176.4,487.8 L186.8,494.3 C189.5,496 190.3,499.5 188.7,502.2 C187.6,504 185.7,505 183.8,505 Z" id="Path" fill="#FFFFFF"></path>
                <path d="M200.4,505 C198.7,505 196.9,504.2 195.8,502.7 C193.9,500.2 194.4,496.6 196.9,494.7 L207.8,486.6 L197.4,480.1 C194.7,478.4 193.9,474.9 195.5,472.2 C197.2,469.5 200.7,468.7 203.4,470.3 L221,481.2 C222.6,482.2 223.6,483.9 223.7,485.8 C223.8,487.7 222.9,489.5 221.4,490.6 L203.8,503.8 C202.8,504.6 201.6,505 200.4,505 Z" id="Path" fill="#FFFFFF"></path>
            </g>
            <path d="M291.1,161.2 C291.1,161.2 307,160 311.3,165.6 L299.6,166 L291.1,161.2 Z" id="Path" fill="#FCC59C"></path>
            <path d="M286.8,166 C287.2,164.6 289.2,161.9 291.2,161.2 C294,160.9 297.6,161 299.9,161.7 C304.5,163.1 304.1,166 304.1,166 L298.6,166.3 C298.6,166.3 297.3,170.6 296.4,175 C294.3,177.1 293.5,176.9 290.6,177 C287.1,177.1 286.5,177 285.1,176.1 C284.8,173.2 286.2,167.9 286.8,166 Z" id="Path" fill="#FCC59C"></path>
            <path d="M299.6,166 L298.8,169.7 C298.8,169.7 299.4,172 301.2,171.4 C303,170.7 304,166 304,166 L299.6,166 Z" id="Path" fill="#FCC59C"></path>
            <path d="M393.9,272.7 L387.7,271.8 C386.9,271.7 386,272 385.4,272.6 L383.9,274.2 L375.5,274.8 C373.6,274.9 372.4,276.8 373,278.5 L374.6,283.2 C375.1,284.6 376.3,285.5 377.7,285.6 L385,286.2 L393.8,286 L393.8,272.7 L393.9,272.7 Z" id="Path" fill="#FCC59C"></path>
            <path d="M440.5,124.2 C440.5,124.2 440.5,133 448.9,138.6 C466.4,150.3 458.1,157.4 454.7,163.7 L459.2,165.8 C459.2,165.8 468.5,156.8 459,145.7 C449.5,134.6 444.7,137.7 440.5,124.2 Z" id="Path" fill="#8B655D"></path>
            <path d="M353.6,129.9 C353.6,129.9 334.1,155.7 356.9,165.6 L335.6,165.6 C335.6,165.6 328.8,154.3 340.5,143.1 C352.1,131.8 349.4,135.2 353.6,129.9 Z" id="Path" fill="#8B655D"></path>
            <path d="M409,319.1 C409,319.1 431.3,382.5 434.6,409.2 C437.9,435.9 442.4,523.9 442.4,523.9 C442.4,523.9 425.7,484.1 420.2,414.1 C416.4,385.8 409,319.1 409,319.1 Z" id="Path" fill="#565775"></path>
            <path d="M384.8,79.2 C384.8,79.2 390.7,129.1 427.7,129.300171 C427.7,129.300171 393.5,129.8 391,76.8 L384.8,79.2 Z" id="Path" fill="#8B655D"></path>
            <path d="M391.3,119.3 C385.6,119.3 381,114.7 381,109 C381,103.3 385.6,98.7 391.3,98.7 C397,98.7 401.6,103.3 401.6,109 C401.6,114.7 397,119.3 391.3,119.3 Z M391.3,100.8 C386.7,100.8 383,104.5 383,109.1 C383,113.7 386.7,117.4 391.3,117.4 C395.9,117.4 399.6,113.7 399.6,109.1 C399.6,104.5 395.8,100.8 391.3,100.8 Z" id="Shape" fill="#FFFFFF"></path>
        </g>
    </g>
</svg>