<?xml version="1.0" encoding="UTF-8"?>
<svg width="755px" height="622px" viewBox="0 0 755 622" version="1.1" xmlns="http://www.w3.org/2000/svg" xmlns:xlink="http://www.w3.org/1999/xlink">
    <!-- Generator: Sketch 53 (72520) - https://sketchapp.com -->
    <title>ui-pack-3-light</title>
    <desc>Created with Sketch.</desc>
    <g id="Page-1" stroke="none" stroke-width="1" fill="none" fill-rule="evenodd">
        <g id="ui-pack-3-light" fill-rule="nonzero">
            <g id="Layer_1">
                <path d="M415,571.5 C458.3,540.1 517.9,507.2 606.3,572.8 C642.223164,599.406827 664.526059,622.695945 701.413468,621 C711.247364,620.547874 742.299603,620.547874 747,604.3 C713.29339,493.695723 711.726591,416.782542 742.299603,373.560455 C757.361668,352.266711 758.928467,316.713226 747,266.9 C703.8,237.8 661.1,208.6 638,159.9 C594,67.1 507.4,-35.9 302.6,14 C202.3,38.4 83.4,213.7 205.9,288.6 C275.9,331.4 89.6,341.2 107.8,476.3 C113.3,517.1 126.7,547.9 145.2,570.5 L415,571.5 Z" id="Path" fill="#EFF9FE"></path>
                <ellipse id="Oval" fill="#D1E6F7" cx="307.7" cy="571.4" rx="152.2" ry="3.8"></ellipse>
                <ellipse id="Oval" fill="#D1E6F7" cx="70.5" cy="569.9" rx="70.2" ry="3.8"></ellipse>
            </g>
            <g id="Layer_2" transform="translate(4.000000, 52.000000)">
                <path d="M263.2,161.9 C288.9,170 288.1,224.9 281.4,230.9 C277.8,234.1 274.4,234 274.4,234 C273.3,234 272,233.8 270.6,233.1 C266.9,231.3 263.8,241.2 262.7,248.9 C260.7,247.4 249.5,243.4 244.4,239.5 C247.2,231 247,211.7 244.5,209.2 C239.4,204.2 237,202.6 234.3,196 C230.6,187.2 231.8,174 240.2,166.6 C246.3,161.2 255.7,159.5 263.2,161.9 Z" id="Path" fill="#FCC59C"></path>
                <path d="M357.1,507.9 C357.1,507.9 374,504 386.9,507.9 C399.9,511.8 395.1,516.6 395.1,516.6 L357,516.6 L357,507.9 L357.1,507.9 Z" id="Path" fill="#5D5E7E"></path>
                <rect id="Rectangle" fill="#C6DAEC" x="458.3" y="315.5" width="204" height="204"></rect>
                <rect id="Rectangle" fill="#D1E6F7" x="556" y="315.6" width="8.6" height="203.8"></rect>
                <rect id="Rectangle" fill="#D1E6F7" transform="translate(559.990600, 417.448600) rotate(90.000000) translate(-559.990600, -417.448600) " x="556.3906" y="315.1986" width="7.2" height="204.5"></rect>
                <rect id="Rectangle" fill="#D1E6F7" x="487.9" y="355.6" width="30" height="8.3"></rect>
                <rect id="Rectangle" fill="#D1E6F7" x="602.8" y="355.6" width="30" height="8.3"></rect>
                <rect id="Rectangle" fill="#D1E6F7" x="487.9" y="468.4" width="30" height="8.3"></rect>
                <rect id="Rectangle" fill="#D1E6F7" x="602.8" y="468.4" width="30" height="8.3"></rect>
                <ellipse id="Oval" fill="#80C785" cx="663.4" cy="421.9" rx="24.3" ry="27"></ellipse>
                <polygon id="Path" fill="#4F8663" points="657.7 479.9 659.9 428.8 649 417.1 659.8 426.1 660.1 417.5 653.5 409.4 660.3 416 660.7 405 661.2 419.9 668.2 412.6 661.5 421.3 661.6 429.7 673.2 419.9 661.9 433.2 663.6 479.9"></polygon>
                <path d="M632.8,477.4 L684.3,477.4 C686.5,477.4 688.1,479.4 687.7,481.6 L679.9,516.6 C679.6,518.2 678.1,519.3 676.5,519.3 L641.3,519.3 C639.7,519.3 638.3,518.2 637.9,516.7 L629.3,481.7 C628.9,479.5 630.6,477.4 632.8,477.4 Z" id="Path" fill="#D1E6F7"></path>
                <path d="M680.3,483.5 C678.8,483.2 676.9,484 676.6,485.6 C675.5,491.1 674.4,496.6 673.3,502.1 C673,503.6 673.7,505.4 675.4,505.8 C676.9,506.1 678.8,505.3 679.1,503.7 L682.4,487.2 C682.7,485.6 682,483.8 680.3,483.5 Z" id="Path" fill="#EFF9FE"></path>
                <path d="M676.7,509 C676.3,508.4 675.7,507.8 674.9,507.6 C674.1,507.4 673.3,507.5 672.6,507.9 C672.3,508.1 671.9,508.3 671.7,508.6 C671.2,509.2 671,509.5 670.7,510.2 C670.6,510.6 670.5,511 670.5,511.4 C670.5,511.8 670.5,512.2 670.6,512.7 C670.8,513.4 671.4,514.1 672,514.5 C672.6,514.9 673.6,515 674.3,514.8 C675,514.6 675.7,514.1 676.1,513.4 C676.3,513 676.4,512.7 676.5,512.3 C676.7,512 676.9,511.7 677,511.3 C677.2,510.6 677.1,509.6 676.7,509 Z" id="Path" fill="#EFF9FE"></path>
                <rect id="Rectangle" fill="#AAC4E2" x="455.5" y="253.3" width="218" height="18.2"></rect>
                <rect id="Rectangle" fill="#D1E6F7" x="455.5" y="124.3" width="218" height="129"></rect>
                <rect id="Rectangle" fill="#AAC4E2" x="551.9" y="271.5" width="25.2" height="28.7"></rect>
                <path d="M317.3,215.1 L318.7,217.7 C318.7,217.7 321.2,218.4 325.9,218 C326.1,217.6 326.4,216.6 326.6,215.9 C324.6,215.2 317.3,215.1 317.3,215.1 Z" id="Path" fill="#C49D96"></path>
                <path d="M324,217.6 C318.1,217.6 312.6,214.4 309.7,209.2 L308.1,206.4 C307.2,204.7 307.8,202.6 309.5,201.6 C311.2,200.7 313.3,201.3 314.3,203 L315.9,205.8 C317.8,209.2 321.4,211 325.3,210.6 L336.8,209.2 C341.2,208.7 344.7,205.1 345.1,200.7 L345.5,194.7 C345.6,192.8 347.3,191.3 349.2,191.5 C351.1,191.6 352.6,193.3 352.4,195.2 L352,201.2 C351.3,208.9 345.2,215.2 337.6,216.1 L326.1,217.5 C325.3,217.5 324.6,217.6 324,217.6 Z" id="Path" fill="#A74F63"></path>
                <path d="M364.9,496.4 L368.3,506.6 L360.2,508.7 C359.3,508.9 358.4,508.5 358,507.7 L353.1,497.7 L363.5,493.7 L364.9,496.4 Z" id="Path" fill="#E6E6E6"></path>
                <path d="M9.2,478.9 C9.2,478.9 13.6,495.7 10,508.7 C6.4,521.8 1.6,517.2 1.6,517.2 L0.5,479.1 L9.2,478.9 Z" id="Path" fill="#5D5E7E"></path>
                <path d="M19.5,487.7 L10.4,488.7 C9.7,488.8 9.1,488.2 9.1,487.5 L9,478.9 L18.7,476.5 L20.2,487.6 L19.5,487.7 Z" id="Path" fill="#E6E6E6"></path>
                <path d="M205.3,184.8 C201.4,173.3 207.9,148.1 232.3,149.3 C236.4,149.5 241.7,148.6 250.5,140.3 C257.7,133.5 270.3,139 273.2,147.1 C276.1,155.2 271.4,158.1 271.4,158.1 C271.4,158.1 276.5,158.5 278.7,149.9 C278.7,149.9 277.7,164.8 265.6,167.5 C256,169.6 251,166.2 251,166.2 C251,166.2 251.6,179.2 246.9,185.6 C246.9,185.6 240.1,181.1 237.6,184.8 C235.1,188.5 239.9,195.7 243.4,196.8 C246.9,197.9 247.4,195.4 249.9,195.8 C249.9,195.8 255.6,197.1 262.9,208 C270.2,219 274.1,223.2 277.4,223.9 C276.9,221.3 276.4,218 276.4,213.1 C276.4,205.7 285.3,206.5 285.3,206.5 C285.3,206.5 285.3,213.4 289.2,222.2 C293.1,231 292.2,229.8 293.4,235.3 C289,238 273.2,238.4 266.9,234.9 C260.7,231.4 251.8,219.9 246.5,210.3 C246.5,210.3 251,219.9 246.5,226.1 C246.8,226 214.8,212.9 205.3,184.8 Z" id="Path" fill="#674B52"></path>
                <path d="M174.1,365.2 C157.5,387.8 166.5,417.5 198.8,418.4 C231.1,419.3 300.7,406.4 300.7,406.4 L348.4,492 L352.6,499.9 L364.7,496.4 L333,380.4 C331.2,374 326,369.2 319.4,368 C286.6,362.1 188,346.3 174.1,365.2 Z" id="Path" fill="#5D5E7E"></path>
                <path d="M227.3,416.7 L193.3,474.5 C190.5,479.3 185.3,482.4 179.7,482.6 L19.7,488.8 L18.8,481.2 L18,475 L162.8,447.3 L168.2,400.1 L227.3,416.7 Z" id="Path" fill="#5D5E7E"></path>
                <path d="M295.8,266.6 L325.8,260.9 L326.1,212.9 L336.3,216 L345.4,268.6 C346,272.4 343.8,276.1 340.2,277.3 L296.4,293 L295.8,266.6 Z" id="Path" fill="#FCC59C"></path>
                <path d="M244.1,237.4 C244.1,237.4 192.5,258.2 170,372.3 C170,372.3 170.7,378.6 197.1,379.4 C204.6,379.6 227.4,380 241.6,368 C249.9,352.9 263.4,297.7 263.4,297.7 L296.5,294.5 L296,266.6 C296,266.6 288.2,266.1 275,264.9 C271.2,264.6 265.9,258.7 263.6,257 C263,253.3 262.6,246.3 262.4,244.8 C256.5,235.7 249,238 244.1,237.4 Z" id="Path" fill="#B2566A"></path>
                <path d="M336.4,215.9 L338.6,208.4 L335.5,205 C333,204.4 324.7,204.1 320,205.9 L318.2,208.8 C318.2,208.8 319.6,209.8 320.6,210.2 C322.4,210.9 323.6,211.9 326.2,215.9" id="Path" fill="#FCC59C"></path>
                <circle id="Oval" fill="#D1E6F7" cx="386.2" cy="35.7" r="35.3"></circle>
                <path d="M386.2,12.8 C385.4,12.8 384.7,12.1 384.7,11.3 L384.7,4.3 C384.7,3.5 385.4,2.8 386.2,2.8 C387,2.8 387.7,3.5 387.7,4.3 L387.7,11.3 C387.7,12.1 387.1,12.8 386.2,12.8 Z" id="Path" fill="#FFFFFF"></path>
                <path d="M386.2,67.9 C385.4,67.9 384.7,67.2 384.7,66.4 L384.7,59.4 C384.7,58.6 385.4,57.9 386.2,57.9 C387,57.9 387.7,58.6 387.7,59.4 L387.7,66.4 C387.7,67.2 387.1,67.9 386.2,67.9 Z" id="Path" fill="#FFFFFF"></path>
                <path d="M373.9,16.1 C373.4,16.1 372.9,15.8 372.6,15.3 L369.1,9.3 C368.7,8.6 368.9,7.7 369.6,7.3 C370.3,6.9 371.2,7.1 371.6,7.8 L375.1,13.8 C375.5,14.5 375.3,15.4 374.6,15.8 C374.5,16 374.2,16.1 373.9,16.1 Z" id="Path" fill="#FFFFFF"></path>
                <path d="M364.9,25.1 C364.6,25.1 364.4,25 364.2,24.9 L358.2,21.4 C357.5,21 357.2,20.1 357.7,19.4 C358.1,18.7 359,18.4 359.7,18.9 L365.7,22.4 C366.4,22.8 366.7,23.7 366.2,24.4 C365.9,24.8 365.4,25.1 364.9,25.1 Z" id="Path" fill="#FFFFFF"></path>
                <path d="M361.6,37.4 L354.6,37.4 C353.8,37.4 353.1,36.7 353.1,35.9 C353.1,35.1 353.8,34.4 354.6,34.4 L361.6,34.4 C362.4,34.4 363.1,35.1 363.1,35.9 C363.1,36.7 362.5,37.4 361.6,37.4 Z" id="Path" fill="#FFFFFF"></path>
                <path d="M358.9,53.2 C358.4,53.2 357.9,52.9 357.6,52.4 C357.2,51.7 357.4,50.8 358.1,50.4 L364.1,46.9 C364.8,46.5 365.7,46.7 366.1,47.4 C366.5,48.1 366.3,49 365.6,49.4 L359.6,52.9 C359.4,53.1 359.1,53.2 358.9,53.2 Z" id="Path" fill="#FFFFFF"></path>
                <path d="M370.5,64.7 C370.2,64.7 370,64.6 369.8,64.5 C369.1,64.1 368.8,63.2 369.3,62.5 L372.8,56.5 C373.2,55.8 374.1,55.5 374.8,56 C375.5,56.4 375.8,57.3 375.3,58 L371.8,64 C371.5,64.5 371,64.7 370.5,64.7 Z" id="Path" fill="#FFFFFF"></path>
                <path d="M402,64.7 C401.5,64.7 401,64.4 400.7,63.9 L397.2,57.9 C396.8,57.2 397,56.3 397.7,55.9 C398.4,55.5 399.3,55.7 399.7,56.4 L403.2,62.4 C403.6,63.1 403.4,64 402.7,64.4 C402.5,64.7 402.3,64.7 402,64.7 Z" id="Path" fill="#FFFFFF"></path>
                <path d="M413.6,53.2 C413.3,53.2 413.1,53.1 412.9,53 L406.9,49.5 C406.2,49.1 405.9,48.2 406.4,47.5 C406.8,46.8 407.7,46.5 408.4,47 L414.4,50.5 C415.1,50.9 415.4,51.8 414.9,52.5 C414.6,52.9 414.1,53.2 413.6,53.2 Z" id="Path" fill="#FFFFFF"></path>
                <path d="M417.8,37.4 L410.8,37.4 C410,37.4 409.3,36.7 409.3,35.9 C409.3,35.1 410,34.4 410.8,34.4 L417.8,34.4 C418.6,34.4 419.3,35.1 419.3,35.9 C419.3,36.7 418.7,37.4 417.8,37.4 Z" id="Path" fill="#FFFFFF"></path>
                <path d="M407.6,25.1 C407.1,25.1 406.6,24.8 406.3,24.3 C405.9,23.6 406.1,22.7 406.8,22.3 L412.8,18.8 C413.5,18.4 414.4,18.6 414.8,19.3 C415.2,20 415,20.9 414.3,21.3 L408.3,24.8 C408.1,25 407.8,25.1 407.6,25.1 Z" id="Path" fill="#FFFFFF"></path>
                <path d="M398.5,16.1 C398.2,16.1 398,16 397.8,15.9 C397.1,15.5 396.8,14.6 397.3,13.9 L400.8,7.9 C401.2,7.2 402.1,6.9 402.8,7.4 C403.5,7.9 403.8,8.7 403.3,9.4 L399.8,15.4 C399.6,15.8 399.1,16.1 398.5,16.1 Z" id="Path" fill="#FFFFFF"></path>
                <path d="M393.5,41.1 C393.3,41.1 393,41 392.8,40.9 L384.8,36.6 L384.8,22.8 C384.8,22 385.5,21.3 386.3,21.3 C387.1,21.3 387.8,22 387.8,22.8 L387.8,34.9 L394.3,38.4 C395,38.8 395.3,39.7 394.9,40.4 C394.5,40.9 394,41.1 393.5,41.1 Z" id="Path" fill="#FFFFFF"></path>
                <path d="M243.8,233.6 C243.8,233.6 246.3,231.2 255,236.1 C263.6,241 268.5,249.1 268.5,249.1 L263.1,253.7 C263.1,253.7 247.3,236.2 241.6,240 C241.5,240 242.3,235 243.8,233.6 Z" id="Path" fill="#B2566A"></path>
                <polygon id="Path" fill="#FBAD26" points="367.3 134.1 301.8 189.6 304.1 197.6 307 205.5 390 194.4"></polygon>
                <polygon id="Path" fill="#A64F63" points="307 185 314.8 204.7 299.6 207.5 294.3 194.3"></polygon>
                <path d="M168.2,400 C168.2,400 182.7,425.9 227.3,416.7 L194.4,472.6 C194.4,472.6 172.3,443.5 168.2,400 Z" id="Path" fill="#564E77"></path>
                <rect id="Rectangle" fill="#FFFFFF" x="473.8" y="166.6" width="47.9" height="4.2"></rect>
                <rect id="Rectangle" fill="#FFFFFF" x="473.8" y="174.5" width="47.9" height="4.2"></rect>
                <rect id="Rectangle" fill="#FFFFFF" x="473.8" y="190.9" width="47.9" height="50.3"></rect>
                <rect id="Rectangle" fill="#FFFFFF" x="536.3" y="190.9" width="117.7" height="50.3"></rect>
                <rect id="Rectangle" fill="#FFFFFF" x="473.8" y="148.9" width="47.9" height="11.8"></rect>
                <rect id="Rectangle" fill="#FFFFFF" x="582.5" y="148.9" width="71.4" height="5.9"></rect>
                <rect id="Rectangle" fill="#FFFFFF" x="582.5" y="160.7" width="71.4" height="5.9"></rect>
                <rect id="Rectangle" fill="#FFFFFF" x="582.5" y="172.5" width="71.4" height="5.9"></rect>
                <polygon id="Path" fill="#A64F63" points="358.2 141.8 379.7 195.8 390 194.4 367.3 134.1"></polygon>
                <circle id="Oval" fill="#FFFFFF" cx="561.8" cy="163.6" r="12.9"></circle>
                <polygon id="Path" fill="#C6DAEC" points="421.2 141.4 391 159.6 432.4 141.4"></polygon>
                <polygon id="Path" fill="#C6DAEC" points="429.5 166 393.9 171.3 421.8 171"></polygon>
                <polygon id="Path" fill="#C6DAEC" points="403.9 126.6 382.7 146.4 414.1 125.3"></polygon>
                <path d="M263.3,297.6 C263.3,297.6 258.5,298.5 245.3,295.1 C245.3,295.1 248,361.1 217,374.6 C217,374.6 209.3,377.9 198.8,379.4 C198.8,379.4 227.8,380.6 241.5,367.9 C241.5,367.9 253.8,343.4 263.3,297.6 Z" id="Path" fill="#994E64"></path>
                <path d="M242.9,194 C242.8,194 242.7,194 242.7,194 C242.7,194 238.4,192.5 239.8,186.8 C239.9,186.4 240.3,186.1 240.7,186.2 C241.1,186.3 241.4,186.7 241.3,187.1 C240.2,191.5 243.1,192.5 243.2,192.6 C243.6,192.7 243.8,193.2 243.7,193.5 C243.5,193.8 243.2,194 242.9,194 Z" id="Path" fill="#ECA17C"></path>
                <path d="M284.2,215.9 C280.8,215.9 279.2,212.6 278.8,210.7 C278.7,210.3 279,209.9 279.4,209.8 C279.8,209.7 280.2,210 280.3,210.4 C280.3,210.6 281.2,214.7 284.7,214.3 C285.1,214.3 285.5,214.6 285.5,215 C285.5,215.4 285.2,215.8 284.8,215.8 C284.6,215.9 284.4,215.9 284.2,215.9 Z" id="Path" fill="#A96B6B"></path>
                <path d="M419.9,316.1 L698.6,316.1 C703,316.1 706.6,312.5 706.6,308.1 L706.6,308.1 C706.6,303.7 703,300.1 698.6,300.1 L419.9,300.1 C415.5,300.1 411.9,303.7 411.9,308.1 L411.9,308.1 C411.9,312.5 415.5,316.1 419.9,316.1 Z" id="Path" fill="#C6DAEC"></path>
            </g>
        </g>
    </g>
</svg>