<?xml version="1.0" encoding="UTF-8"?>
<svg width="720px" height="556px" viewBox="0 0 720 556" version="1.1" xmlns="http://www.w3.org/2000/svg" xmlns:xlink="http://www.w3.org/1999/xlink">
    <!-- Generator: Sketch 53 (72520) - https://sketchapp.com -->
    <title>ui-pack-1-light</title>
    <desc>Created with Sketch.</desc>
    <g id="Page-1" stroke="none" stroke-width="1" fill="none" fill-rule="evenodd">
        <g id="ui-pack-1-light" fill-rule="nonzero">
            <path d="M338.2,553.4 C288.9,527.3 257,484.3 234.8,443.1 C190.1,360.1 83,345.5 29.4,269.1 C-69.6,127.9 104.4,-30 244.3,63 C335,123.3 389.6,80.3 428.5,48 C500.7,-12 673.9,-42 705.9,127.9 C729.1,250.9 558.6,268.8 624.9,304.7 C732.4,362.9 653.6,510.3 569.2,553 L338.2,553.4 Z" id="Path" fill="#EFF9FE"></path>
            <path d="M494.7,163 L453.1,207.7 L369.6,208.4 L378.7,217.9 L454,224.2 C455.6,224.3 457.3,223.9 458.6,223 L507,190.5 C516.2,180.9 515.6,168.4 509.9,163.8 C504.4,159.3 495.3,162.7 494.7,163 Z" id="Path" fill="#ECA17C"></path>
            <ellipse id="Oval" fill="#D1E6F7" cx="545.9" cy="552.1" rx="173.7" ry="3.8"></ellipse>
            <path d="M523.9,286 C523.9,286 541.3,289.3 555.7,289.3 C577.6,289.3 598,283.5 598,283.5 C598,283.5 600.8,292.7 600,305.6 C599.1,320.3 592.9,331.6 594.2,387.2 C607.7,431 624.2,525.8 624.2,525.8 L605.9,526.2 C605.9,526.2 559.3,407.4 556,394.8 C550.2,372.5 534.8,339.1 528.4,311.2 C526.2,301.4 524.4,290.8 523.9,286 Z" id="Path" fill="#DC4C55"></path>
            <path d="M440.9,103.1 C440.5,104.2 437.5,112.2 441.9,119.5 C444.1,123.1 447.2,125 448.8,125.9 C449.3,124.1 449.7,121.8 449.6,119.3 C449.3,110.3 442.6,104.5 440.9,103.1 Z" id="Path" fill="#5F47A4"></path>
            <polygon id="Path" fill="#FFFFFF" points="272.8 104.2 288.7 106.6 439.1 274.7 439 287.4"></polygon>
            <path d="M523.9,286 C523.9,286 553,288.8 567.4,287.8 C577.9,287.1 598,283.5 598,283.5 C598,283.5 601.7,296.6 599.6,309.4 C597.3,324 562.4,347.8 534.7,397.2 C549.6,436.1 545.4,528 545.4,528 L528.5,526.9 C528.5,526.9 503.9,411.2 501.8,398.3 C501.7,374.3 506.9,345 513.4,320.3 C516.4,309 522.2,289.3 523.9,286 Z" id="Path" fill="#FF646C"></path>
            <path d="M523.9,286 C587.8,303.8 596.8,299.2 599.8,293.9 C592.3,219.6 560.4,179.4 534.5,153.7 C528.8,148.1 518.5,148.2 508.3,147.2 C508.3,147.2 503.3,150 497.2,157 L488.3,177.7 C488.3,177.7 482.2,185.3 485.6,200 C487,205.9 486.9,210.9 491.4,218.1 C494.4,222.8 497.9,224.6 505.6,230.3 C505.6,230.2 528.1,251.3 523.9,286 Z" id="Path" fill="#39C0C3"></path>
            <path d="M495.5,159.6 C495.5,159.6 479.5,174.5 469.4,184.9 L489.2,207.8 C489.2,207.8 507.6,191.4 509.9,181 C512.1,170.5 504.2,156.3 495.5,159.6 Z" id="Path" fill="#39C0C3"></path>
            <path d="M501.5,116 C504,131.7 494.2,151.6 478.5,154.1 C462.8,156.6 447.8,140 445.3,124.4 C442.8,108.7 452.9,94.7 468.5,92.2 C484.2,89.6 499,100.3 501.5,116 Z" id="Path" fill="#FCC59C"></path>
            <path d="M485.7,150.3 C485.7,150.3 494.1,157.1 496.1,160.5 C497.5,162.9 497.7,162.8 506,152.6 C508.6,149.4 510.1,148.9 510.9,147.4 C504.6,140.5 496.5,135.2 496.5,135.2 L485.7,150.3 Z" id="Path" fill="#FCC59C"></path>
            <path d="M385.5,197.9 C385.5,197.9 382.5,192.4 379.2,189.5 C377.8,188.2 373.9,189.5 373.8,191.9 C373.8,191.9 364.2,190.9 364.8,198.4 C365,201.3 368.1,204 371.2,207.3 C374.4,210.7 377.9,214.6 377.9,214.6 C377.9,214.6 390.4,205.7 385.5,197.9 Z" id="Path" fill="#ECA17C"></path>
            <path d="M481.9,123.4 C481.5,123.4 481.2,123.1 481.2,122.7 C481,118.1 478,118 477.9,117.9 C477.5,117.9 477.2,117.5 477.2,117.1 C477.2,116.7 477.6,116.4 478,116.4 C478,116.4 482.5,116.7 482.7,122.6 C482.7,123.1 482.4,123.4 481.9,123.4 C481.9,123.4 481.9,123.4 481.9,123.4 Z" id="Path" fill="#ECA17C"></path>
            <path d="M464.4,150 C463.9,150 463.5,150 463.1,149.9 C462.7,149.8 462.4,149.5 462.5,149 C462.6,148.6 462.9,148.3 463.4,148.4 C463.6,148.4 468.8,149.2 469.8,144.9 C469.9,144.5 470.3,144.3 470.7,144.3 C471.1,144.4 471.3,144.8 471.3,145.2 C470.4,149.1 466.9,150 464.4,150 Z" id="Path" fill="#ECA17C"></path>
            <path d="M246.3,299.2 C246.3,300.6 252.3,301.7 259.6,301.7 C266.9,301.7 272.9,300.6 272.9,299.2 L272.9,266.7 L246.3,266.7 L246.3,299.2 L246.3,299.2 Z" id="Path" fill="#C6DAEC"></path>
            <ellipse id="Oval" fill="#616161" cx="259.6" cy="266.7" rx="13.3" ry="1"></ellipse>
            <path d="M269.7,256.2 L262.2,267.3 C262.2,267.3 265.1,267.2 267.9,266.8 L273.5,258.9 L269.7,256.2 Z" id="Path" fill="#6C7596"></path>
            <path d="M269.7,256.2 L275.8,250.5 C276.1,250.2 276.6,250.5 276.4,250.9 L273.5,258.8 L269.7,256.2 Z" id="Path" fill="#B49870"></path>
            <path d="M370.9,198.3 L362.7,199.3 C362.3,199.3 362.1,198.8 362.4,198.6 L369.4,194 L370.9,198.3 Z" id="Path" fill="#616161"></path>
            <path d="M254.8,256.2 L262.3,267.3 C262.3,267.3 259.7,267.5 257,267.3 L251.1,258.9 L254.8,256.2 Z" id="Path" fill="#C96769"></path>
            <path d="M254.8,256.2 L248.7,250.5 C248.4,250.2 247.9,250.5 248.1,250.9 L251,258.8 L254.8,256.2 Z" id="Path" fill="#B49870"></path>
            <path d="M440.8,116.6 C445.6,122.1 461.3,124.8 470,118.2 C485,106.2 485.5,123.6 487.3,128.3 C491.1,138.4 504.1,140.8 504.1,140.8 C504.1,140.8 528.5,124.2 514,92.2 C499.5,60.2 419.6,92.2 440.8,116.6 Z" id="Path" fill="#5F47A4"></path>
            <path d="M506.7,82.9 C506.7,82.9 550.1,65.6 553.6,105.9 C554.8,119.6 543.2,124.7 543.2,124.7 C543.2,124.7 556.3,116.5 546.4,109.1 C538.3,103.1 521.6,113.4 516.8,102 C502.7,95.1 506.2,84.7 506.7,82.9 Z" id="Path" fill="#5F47A4"></path>
            <path d="M384.6,196.3 C394.8,192.5 398.2,191.3 408.4,187.5 C408.4,187.5 408.5,185 407.4,184.7 C397,187.6 391.3,188.6 380.9,191.6 C381.5,192.2 382.3,192.9 383,193.8 C383.6,194.6 384.1,195.5 384.6,196.3 Z" id="Path" fill="#616161"></path>
            <path d="M528.6,526.9 L527.9,536.1 L509.9,543.4 L508.6,544 C507.3,544.9 507.9,546.8 509.5,546.9 L529.7,548.3 C532.8,548.5 540.8,548.7 543.2,547.1 C545.8,545.3 545.4,545.3 546,542.2 L546,537.9 L545.5,528 L528.6,526.9 Z" id="Path" fill="#FAB074"></path>
            <path d="M509.9,543.4 C509.9,543.4 496.9,548.2 495.6,550.4 C494.2,552.7 496.9,554.8 500.7,554.9 C512.8,555.4 537.3,555.3 543,553.1 C549.5,550.6 546,537.8 546,537.8 C545.6,539.1 544.2,541.3 542.9,542.5 C541,544.3 538.4,545.1 535.8,545.9 C533.5,546.6 531.1,546.9 528.7,547 C525.3,547.1 521.9,547.1 518.5,546.9 C516.2,546.8 513.7,546.8 511.5,546 C510.7,545.7 509.7,545.3 509.6,544.4 C509.4,544.2 509.6,543.7 509.9,543.4 Z" id="Path" fill="#DC4C55"></path>
            <path d="M511.7,190.6 C511.7,190.6 507.9,206.5 492.6,219.5 C492.6,219.5 498.1,227.2 505.7,230.2 C508.3,236.1 524.5,270.9 523.9,286 C523.9,286 536.5,245.7 511.7,190.6 Z" id="Path" fill="#39ACC3"></path>
            <path d="M514,100.8 C514,100.8 518.2,124.7 502.5,136.9 C502.5,136.9 520.2,128.5 517.8,103.9 L514,100.8 Z" id="Path" fill="#5F5AD3"></path>
            <path d="M510.3,94.3 C510.3,94.3 505.4,110.8 494.7,120 C494.7,120 506.2,114.6 513,99.1 L510.3,94.3 Z" id="Path" fill="#5F5AD3"></path>
            <path d="M507.1,87.7 C507.1,87.7 488.3,79.2 471.5,81.9 C471.5,81.9 491,75.7 506.7,82.2 L507.1,87.7 Z" id="Path" fill="#5F5AD3"></path>
            <path d="M508.3,83 C508.3,83 539.9,72.4 552.5,99.1 C552.5,99.1 537.9,72.9 508,91 C508,91 507.1,87.3 508.3,83 Z" id="Path" fill="#5F5AD3"></path>
            <path d="M506.3,81.9 C504.5,82.8 500.2,96.4 517.8,103.9 L517.8,103.9 C517.8,103.9 508.6,96.2 508.6,82.3 C508.5,82.3 507.5,81.9 506.3,81.9 Z" id="Path" fill="#399AC3"></path>
            <path d="M432.4,289.7 L270.9,110.4 C269.5,108.8 269.6,106.4 271.2,105 L271.2,105 C272.8,103.6 275.2,103.7 276.6,105.3 L438,284.6 C439.4,286.2 439.3,288.6 437.7,290 L437.7,290 C436.2,291.4 433.8,291.3 432.4,289.7 Z" id="Path" fill="#C6DAEC"></path>
            <path d="M354.4,199.9 L397.4,289.5 C399.6,294.1 396.3,299.3 391.2,299.3 L331.6,299.3 L331.6,299.3 C331.6,295.8 334.5,292.9 338,292.9 L393.3,292.9 L346.8,194.7 L354.4,199.9 Z" id="Path" fill="#C6DAEC"></path>
            <path d="M595.1,342.5 C595.1,342.5 584.9,359.3 570.4,366.9 C555.9,374.5 568,428.2 568,428.2 L549.4,374.1 C549.4,374.1 569.8,334.9 599.7,309.7 C599.6,309.7 599.4,311.8 595.1,342.5 Z" id="Path" fill="#CA4C55"></path>
            <path d="M456.7,143.2 C453.8,143.2 449,137.1 448.4,136.3 C447.7,135.4 441.9,127.6 444.6,125.6 C447.3,123.6 453.2,131.3 453.9,132.2 C454.6,133.1 460.4,140.9 457.7,142.9 C457.5,143.1 457.1,143.2 456.7,143.2 Z M445.9,127.2 C445.9,128.2 447,131.1 450,135 C453,139 455.5,140.8 456.4,141.1 C456.4,140.2 455.3,137.2 452.3,133.3 L452.3,133.3 C449.3,129.4 446.8,127.5 445.9,127.2 Z" id="Shape" fill="#FFFFFF"></path>
            <path d="M453.1,133.7 C452.8,133.7 452.6,133.6 452.4,133.4 C452,133 452,132.4 452.4,132 L470.2,115.3 C470.6,114.9 471.2,114.9 471.6,115.3 C472,115.7 472,116.3 471.6,116.7 L453.8,133.4 C453.6,133.6 453.4,133.7 453.1,133.7 Z" id="Path" fill="#FFFFFF"></path>
            <path d="M357.3,480.7 C357.3,480.7 373.3,492.6 353.1,503.6 C332.9,514.6 310.7,504.8 320.2,487.8 C329.8,470.7 320.8,474.1 315.4,463.5 C310,452.9 320.8,452.5 322.1,434 C323.3,415.5 351.2,401.1 357.5,410.7 C363.7,420.3 345.4,424.6 348.8,434.6 C352.2,444.6 366.5,456 357.1,466.6 C347.7,477.2 357.3,480.7 357.3,480.7 Z" id="Path" fill="#80C785"></path>
            <path d="M336.8,517.6 C336.6,517.6 336.4,517.5 336.2,517.4 C335.9,517.1 335.9,516.5 336.2,516.2 C336.2,516.2 337.6,514.7 338.5,511.1 C339.4,507.7 340,501.8 338.3,492.5 C336.8,484.2 336.5,478.3 336.3,473.2 C336,466.7 335.8,461 333.2,452.4 C330.7,444.2 330.6,438.1 333,432.4 C335.2,427 339.7,421.9 347.8,415.4 C348.2,415.1 348.7,415.2 349,415.5 C349.3,415.9 349.2,416.4 348.9,416.7 C333.7,428.8 330.4,437 334.9,451.8 C337.6,460.6 337.8,466.3 338.1,473 C338.3,478.1 338.5,484 340,492.1 C343.4,510.8 337.7,517 337.5,517.2 C337.2,517.5 337,517.6 336.8,517.6 Z" id="Path" fill="#63A177"></path>
            <path d="M334.7,429.4 C334.5,429.4 334.3,429.3 334.2,429.1 C334.2,429.1 333.5,428.1 333.2,426.4 C333,424.9 333.1,422.6 335,419.8 C335.2,419.5 335.6,419.4 335.9,419.6 C336.2,419.8 336.3,420.2 336.1,420.5 C333,425 335.1,428.2 335.2,428.3 C335.4,428.6 335.3,429 335,429.2 C335,429.4 334.9,429.4 334.7,429.4 Z" id="Path" fill="#63A177"></path>
            <path d="M335.7,462 C335.5,462 335.3,461.9 335.1,461.7 C334.9,461.4 335,461 335.4,460.8 C335.4,460.8 337.5,459.6 339.6,457.4 C342.4,454.4 343.8,451 344,447.2 C344,446.8 344.3,446.6 344.7,446.6 C345.1,446.6 345.3,446.9 345.3,447.3 C345.2,451.3 343.5,455.1 340.6,458.3 C338.4,460.7 336.2,461.9 336.1,461.9 C335.9,462 335.8,462 335.7,462 Z" id="Path" fill="#63A177"></path>
            <path d="M333.3,440.1 C332.7,440.1 332.4,440.1 332.4,440.1 C332.1,440.1 331.8,439.7 331.8,439.4 C331.8,439.1 332.2,438.8 332.5,438.8 L332.5,438.8 C332.5,438.8 333.9,439 335.6,438.6 C337.9,438.1 339.7,437 341,435.3 C341.2,435 341.6,435 341.9,435.2 C342.2,435.4 342.2,435.8 342,436.1 C340.5,438.1 338.4,439.4 335.8,439.9 C334.9,440 334,440.1 333.3,440.1 Z" id="Path" fill="#63A177"></path>
            <path d="M337.5,474.3 C337.4,474.3 337.3,474.3 337.3,474.3 C337.2,474.3 334.7,473.3 332.1,470.9 C329.7,468.7 326.6,465 326.1,459.3 C326.1,458.9 326.3,458.6 326.7,458.6 C327.1,458.6 327.4,458.8 327.4,459.2 C327.8,463.4 329.7,467 333,470 C335.5,472.2 337.8,473.1 337.8,473.1 C338.1,473.2 338.3,473.6 338.2,473.9 C338,474.1 337.8,474.3 337.5,474.3 Z" id="Path" fill="#63A177"></path>
            <path d="M339.7,489.4 C339.4,489.4 339.1,489.1 339.1,488.8 C339.1,488.4 339.4,488.1 339.7,488.1 C339.7,488.1 342.1,487.9 344.7,486.6 C348,484.9 350,482 350.6,478.1 C350.6,477.8 351,477.5 351.3,477.6 C351.6,477.6 351.9,478 351.8,478.3 C351,483.7 347.8,486.5 345.2,487.8 C342.4,489.2 339.8,489.4 339.7,489.4 C339.7,489.4 339.7,489.4 339.7,489.4 Z" id="Path" fill="#63A177"></path>
            <path d="M337.5,500 C336.3,500 334.8,499.9 333.2,499.5 C330,498.7 326,496.5 324.6,490.7 C324.5,490.4 324.7,490 325.1,489.9 C325.4,489.8 325.8,490 325.9,490.4 C326.9,494.6 329.4,497.2 333.6,498.2 C336.7,499 339.6,498.5 339.6,498.5 C339.9,498.4 340.3,498.7 340.3,499 C340.4,499.3 340.1,499.7 339.8,499.7 C339.7,499.9 338.8,500 337.5,500 Z" id="Path" fill="#63A177"></path>
            <path d="M315.4,515.7 L361.9,515.7 C363.9,515.7 365.4,517.5 364.9,519.5 L357.9,551.1 C357.6,552.5 356.3,553.5 354.9,553.5 L323.2,553.5 C321.8,553.5 320.5,552.5 320.2,551.1 L312.5,519.5 C311.9,517.6 313.4,515.7 315.4,515.7 Z" id="Path" fill="#D1E6F7"></path>
            <path d="M605.8,526.3 L608.8,534.3 L588.8,541.3 L587.5,541.9 C586.2,542.8 586.8,544.7 588.4,544.8 L608.6,546.2 C611.7,546.4 621.8,546.7 624.2,545.1 C626.8,543.3 626.3,543.7 626.7,541.2 L625.9,536.3 L624.2,525.8 L605.8,526.3 Z" id="Path" fill="#FAB074"></path>
            <path d="M588.8,541.2 C588.8,541.2 575.8,546 574.5,548.2 C573.1,550.5 575.8,552.6 579.6,552.7 C591.7,553.2 617.2,552.5 622.9,550.4 C629.4,547.9 625.7,535.1 625.7,535.1 C625.3,536.4 623.1,539.1 621.8,540.4 C619.9,542.2 617.3,543 614.7,543.8 C612.4,544.5 610,544.8 607.6,544.9 C604.2,545 600.8,545 597.4,544.8 C595.1,544.7 592.6,544.7 590.4,543.9 C589.6,543.6 588.6,543.2 588.5,542.3 C588.3,542 588.5,541.5 588.8,541.2 Z" id="Path" fill="#DC4C55"></path>
            <path d="M389,211.9 C389,211.9 389.4,205.1 388,200.6 C387.4,198.6 383.3,197.5 382,199.7 C382,199.7 373.7,194.1 370.1,201.3 C368.7,204.1 367.5,208.1 370.7,211.7 C374,215.5 378.6,218.9 378.6,218.9 C378.6,218.9 389,221.9 389,211.9 Z" id="Path" fill="#FCC59C"></path>
            <path d="M450.6,254 C424.2,241.1 378.6,218.8 378.6,218.8 C384.9,216.2 386.6,210.2 386.6,210.2 L451.5,233.4 C466.1,217.9 472.4,207.1 477.8,197.6 C485.3,184.4 495.1,169.2 505,168.6 C505.7,168.6 509.5,168.4 512.2,170.9 C520.3,178.7 508.3,196.1 505,204 L502.2,207.7 C502.2,207.7 480.8,236.6 460.4,253.7 C457.7,255.9 453.8,255.5 450.6,254 Z" id="Path" fill="#FCC59C"></path>
            <path d="M497.5,164.1 C497.5,164.1 481.6,182.3 473.4,197.7 L503.8,217.4 C503.8,217.4 519.5,192.4 518.6,179.6 C517.7,166.8 506.4,157.3 497.5,164.1 Z" id="Path" fill="#39C0C3"></path>
            <g id="Layer_2" transform="translate(163.000000, 286.000000)">
                <path d="M374.3,3.6 C374.3,3.6 337.2,82.9 339.9,118.5 C339.9,118.5 333.1,88.8 360.8,0 L374.3,3.6 Z" id="Path" fill="#F15858"></path>
                <path d="M9.3,29.2 L369.8,29.2 C374.4,29.2 378.2,25.6 378.2,21.2 L378.2,21.2 C378.2,16.8 374.5,13.2 369.8,13.2 L9.3,13.2 C4.7,13.2 0.9,16.8 0.9,21.2 L0.9,21.2 C0.9,25.6 4.6,29.2 9.3,29.2 Z" id="Path" fill="#D1E6F7"></path>
            </g>
        </g>
    </g>
</svg>